%TF.GenerationSoftware,KiCad,Pcbnew,6.99.0-unknown-e4798199c6~148~ubuntu20.04.1*%
%TF.CreationDate,2022-06-12T18:05:56+02:00*%
%TF.ProjectId,MTRON_PCB,4d54524f-4e5f-4504-9342-2e6b69636164,rev?*%
%TF.SameCoordinates,Original*%
%TF.FileFunction,Soldermask,Top*%
%TF.FilePolarity,Negative*%
%FSLAX46Y46*%
G04 Gerber Fmt 4.6, Leading zero omitted, Abs format (unit mm)*
G04 Created by KiCad (PCBNEW 6.99.0-unknown-e4798199c6~148~ubuntu20.04.1) date 2022-06-12 18:05:56*
%MOMM*%
%LPD*%
G01*
G04 APERTURE LIST*
G04 Aperture macros list*
%AMRoundRect*
0 Rectangle with rounded corners*
0 $1 Rounding radius*
0 $2 $3 $4 $5 $6 $7 $8 $9 X,Y pos of 4 corners*
0 Add a 4 corners polygon primitive as box body*
4,1,4,$2,$3,$4,$5,$6,$7,$8,$9,$2,$3,0*
0 Add four circle primitives for the rounded corners*
1,1,$1+$1,$2,$3*
1,1,$1+$1,$4,$5*
1,1,$1+$1,$6,$7*
1,1,$1+$1,$8,$9*
0 Add four rect primitives between the rounded corners*
20,1,$1+$1,$2,$3,$4,$5,0*
20,1,$1+$1,$4,$5,$6,$7,0*
20,1,$1+$1,$6,$7,$8,$9,0*
20,1,$1+$1,$8,$9,$2,$3,0*%
G04 Aperture macros list end*
%ADD10C,0.800000*%
%ADD11C,6.000000*%
%ADD12O,1.700000X1.700000*%
%ADD13R,1.700000X1.700000*%
%ADD14RoundRect,0.250000X-0.350000X-0.450000X0.350000X-0.450000X0.350000X0.450000X-0.350000X0.450000X0*%
%ADD15RoundRect,0.250000X-0.450000X0.350000X-0.450000X-0.350000X0.450000X-0.350000X0.450000X0.350000X0*%
%ADD16RoundRect,0.250000X-0.337500X-0.475000X0.337500X-0.475000X0.337500X0.475000X-0.337500X0.475000X0*%
%ADD17C,1.600000*%
%ADD18RoundRect,0.250000X0.475000X-0.337500X0.475000X0.337500X-0.475000X0.337500X-0.475000X-0.337500X0*%
%ADD19RoundRect,0.250000X0.350000X0.450000X-0.350000X0.450000X-0.350000X-0.450000X0.350000X-0.450000X0*%
%ADD20R,2.000000X1.500000*%
%ADD21R,2.000000X3.800000*%
%ADD22RoundRect,0.250000X-0.475000X0.337500X-0.475000X-0.337500X0.475000X-0.337500X0.475000X0.337500X0*%
%ADD23RoundRect,0.250000X0.337500X0.475000X-0.337500X0.475000X-0.337500X-0.475000X0.337500X-0.475000X0*%
%ADD24RoundRect,0.150000X-0.825000X-0.150000X0.825000X-0.150000X0.825000X0.150000X-0.825000X0.150000X0*%
%ADD25RoundRect,0.243750X-0.456250X0.243750X-0.456250X-0.243750X0.456250X-0.243750X0.456250X0.243750X0*%
%ADD26R,0.900000X1.200000*%
%ADD27R,0.700000X0.340000*%
%ADD28R,1.600000X1.600000*%
%ADD29O,1.600000X2.400000*%
%ADD30R,1.600000X2.400000*%
G04 APERTURE END LIST*
D10*
%TO.C,H3*%
X123250000Y-111000000D03*
X122590990Y-112590990D03*
X122590990Y-109409010D03*
X121000000Y-113250000D03*
D11*
X121000000Y-111000000D03*
D10*
X121000000Y-108750000D03*
X119409010Y-112590990D03*
X119409010Y-109409010D03*
X118750000Y-111000000D03*
%TD*%
%TO.C,H2*%
X163250000Y-111000000D03*
X162590990Y-112590990D03*
X162590990Y-109409010D03*
X161000000Y-113250000D03*
D11*
X161000000Y-111000000D03*
D10*
X161000000Y-108750000D03*
X159409010Y-112590990D03*
X159409010Y-109409010D03*
X158750000Y-111000000D03*
%TD*%
%TO.C,H4*%
X163250000Y-71000000D03*
X162590990Y-72590990D03*
X162590990Y-69409010D03*
X161000000Y-73250000D03*
D11*
X161000000Y-71000000D03*
D10*
X161000000Y-68750000D03*
X159409010Y-72590990D03*
X159409010Y-69409010D03*
X158750000Y-71000000D03*
%TD*%
%TO.C,H1*%
X123250000Y-71000000D03*
X122590990Y-72590990D03*
X122590990Y-69409010D03*
X121000000Y-73250000D03*
D11*
X121000000Y-71000000D03*
D10*
X121000000Y-68750000D03*
X119409010Y-72590990D03*
X119409010Y-69409010D03*
X118750000Y-71000000D03*
%TD*%
D12*
%TO.C,J2*%
X127234999Y-67599999D03*
D13*
X129774999Y-67599999D03*
%TD*%
D12*
%TO.C,J7*%
X162199999Y-81754999D03*
X162199999Y-79214999D03*
D13*
X162199999Y-76674999D03*
%TD*%
D14*
%TO.C,R7*%
X122100000Y-78200000D03*
X120100000Y-78200000D03*
%TD*%
D15*
%TO.C,R4*%
X126800000Y-109700000D03*
X126800000Y-107700000D03*
%TD*%
%TO.C,R3*%
X132600000Y-109800000D03*
X132600000Y-107800000D03*
%TD*%
D16*
%TO.C,C9*%
X135937500Y-79000000D03*
X133862500Y-79000000D03*
%TD*%
D17*
%TO.C,U1*%
X146940000Y-99060000D03*
X149480000Y-99060000D03*
X146940000Y-96520000D03*
X149480000Y-96520000D03*
X146940000Y-93980000D03*
X149480000Y-93980000D03*
X146940000Y-91440000D03*
X149480000Y-91440000D03*
X146940000Y-88900000D03*
X149480000Y-88900000D03*
X124080000Y-88900000D03*
X121540000Y-86360000D03*
X124080000Y-86360000D03*
X126620000Y-86360000D03*
X129160000Y-86360000D03*
X131700000Y-86360000D03*
X134240000Y-86360000D03*
X136780000Y-86360000D03*
X139320000Y-86360000D03*
X141860000Y-86360000D03*
X144400000Y-86360000D03*
X146940000Y-86360000D03*
X149480000Y-86360000D03*
X152020000Y-86360000D03*
X154560000Y-86360000D03*
X154560000Y-88900000D03*
X154560000Y-91440000D03*
X154560000Y-93980000D03*
X154560000Y-96520000D03*
X154560000Y-99060000D03*
X154560000Y-101600000D03*
X152020000Y-101600000D03*
X149480000Y-101600000D03*
X146940000Y-101600000D03*
X144400000Y-101600000D03*
X141860000Y-101600000D03*
X139320000Y-101600000D03*
X136780000Y-101600000D03*
X134240000Y-101600000D03*
X131700000Y-101600000D03*
X129160000Y-101600000D03*
X126620000Y-101600000D03*
X124080000Y-101600000D03*
X121540000Y-101600000D03*
%TD*%
D15*
%TO.C,R2*%
X148500000Y-68900000D03*
X148500000Y-66900000D03*
%TD*%
D12*
%TO.C,J6*%
X138816999Y-113299999D03*
D13*
X141356999Y-113299999D03*
%TD*%
D12*
%TO.C,J5*%
X162199999Y-87549999D03*
X162199999Y-90089999D03*
X162199999Y-92629999D03*
X162199999Y-95169999D03*
X162199999Y-97709999D03*
D13*
X162199999Y-100249999D03*
%TD*%
D16*
%TO.C,C10*%
X135937500Y-76600000D03*
X133862500Y-76600000D03*
%TD*%
D18*
%TO.C,C2*%
X157500000Y-94162500D03*
X157500000Y-96237500D03*
%TD*%
D19*
%TO.C,R8*%
X120100000Y-80300000D03*
X122100000Y-80300000D03*
%TD*%
D16*
%TO.C,C6*%
X139900000Y-106700000D03*
X137825000Y-106700000D03*
%TD*%
D20*
%TO.C,U3*%
X139849999Y-81499999D03*
D21*
X146149999Y-79199999D03*
D20*
X139849999Y-79199999D03*
X139849999Y-76899999D03*
%TD*%
D16*
%TO.C,C11*%
X149437500Y-106700000D03*
X147362500Y-106700000D03*
%TD*%
D12*
%TO.C,J3*%
X129659999Y-113299999D03*
D13*
X132199999Y-113299999D03*
%TD*%
D19*
%TO.C,R6*%
X120100000Y-82400000D03*
X122100000Y-82400000D03*
%TD*%
D12*
%TO.C,J1*%
X151511999Y-67599999D03*
D13*
X154051999Y-67599999D03*
%TD*%
D22*
%TO.C,C3*%
X154600000Y-72837500D03*
X154600000Y-70762500D03*
%TD*%
D23*
%TO.C,C8*%
X142725000Y-106700000D03*
X144800000Y-106700000D03*
%TD*%
%TO.C,C5*%
X142362500Y-71800000D03*
X144437500Y-71800000D03*
%TD*%
D24*
%TO.C,U5*%
X131075000Y-77595000D03*
X131075000Y-78865000D03*
X131075000Y-80135000D03*
X131075000Y-81405000D03*
X126125000Y-81405000D03*
X126125000Y-80135000D03*
X126125000Y-78865000D03*
X126125000Y-77595000D03*
%TD*%
D25*
%TO.C,D3*%
X129300000Y-109737500D03*
X129300000Y-107862500D03*
%TD*%
D12*
%TO.C,J4*%
X142934999Y-67599999D03*
D13*
X145474999Y-67599999D03*
%TD*%
D23*
%TO.C,C1*%
X119762500Y-92100000D03*
X121837500Y-92100000D03*
%TD*%
D26*
%TO.C,D1*%
X149949999Y-71799999D03*
X146649999Y-71799999D03*
%TD*%
D12*
%TO.C,J8*%
X127234999Y-71399999D03*
D13*
X129774999Y-71399999D03*
%TD*%
D27*
%TO.C,U4*%
X139649999Y-109099999D03*
X139649999Y-109599999D03*
X139649999Y-110099999D03*
X138149999Y-110099999D03*
X138149999Y-109599999D03*
X138149999Y-109099999D03*
%TD*%
D15*
%TO.C,R1*%
X152100000Y-72800000D03*
X152100000Y-70800000D03*
%TD*%
D17*
%TO.C,C7*%
X136500000Y-72347300D03*
D28*
X136499999Y-68847299D03*
%TD*%
D12*
%TO.C,J9*%
X150544999Y-113299999D03*
X153084999Y-113299999D03*
D13*
X155624999Y-113299999D03*
%TD*%
D14*
%TO.C,R5*%
X122100000Y-76100000D03*
X120100000Y-76100000D03*
%TD*%
D27*
%TO.C,U6*%
X149149999Y-109099999D03*
X149149999Y-109599999D03*
X149149999Y-110099999D03*
X147649999Y-110099999D03*
X147649999Y-109599999D03*
X147649999Y-109099999D03*
%TD*%
D23*
%TO.C,C4*%
X124362500Y-92100000D03*
X126437500Y-92100000D03*
%TD*%
D29*
%TO.C,U2*%
X149799999Y-75404999D03*
X152339999Y-75404999D03*
X154879999Y-75404999D03*
X157419999Y-75404999D03*
X157419999Y-83024999D03*
X154879999Y-83024999D03*
X152339999Y-83024999D03*
D30*
X149799999Y-83024999D03*
%TD*%
D23*
%TO.C,C12*%
X152162500Y-106700000D03*
X154237500Y-106700000D03*
%TD*%
D25*
%TO.C,D2*%
X135100000Y-109737500D03*
X135100000Y-107862500D03*
%TD*%
M02*
