%TF.GenerationSoftware,KiCad,Pcbnew,6.99.0-unknown-e4798199c6~148~ubuntu20.04.1*%
%TF.CreationDate,2022-06-12T18:05:56+02:00*%
%TF.ProjectId,MTRON_PCB,4d54524f-4e5f-4504-9342-2e6b69636164,rev?*%
%TF.SameCoordinates,Original*%
%TF.FileFunction,Legend,Top*%
%TF.FilePolarity,Positive*%
%FSLAX46Y46*%
G04 Gerber Fmt 4.6, Leading zero omitted, Abs format (unit mm)*
G04 Created by KiCad (PCBNEW 6.99.0-unknown-e4798199c6~148~ubuntu20.04.1) date 2022-06-12 18:05:56*
%MOMM*%
%LPD*%
G01*
G04 APERTURE LIST*
%ADD10C,0.150000*%
%ADD11C,0.120000*%
%ADD12C,0.100000*%
G04 APERTURE END LIST*
D10*
X137140000Y-108640000D02*
X138590000Y-108640000D01*
X138590000Y-108640000D02*
X138590000Y-109350000D01*
X138590000Y-109350000D02*
X137140000Y-109350000D01*
X137140000Y-109350000D02*
X137140000Y-108640000D01*
G36*
X137140000Y-108640000D02*
G01*
X138590000Y-108640000D01*
X138590000Y-109350000D01*
X137140000Y-109350000D01*
X137140000Y-108640000D01*
G37*
X146700000Y-108680000D02*
X148220000Y-108680000D01*
X148220000Y-108680000D02*
X148220000Y-109390000D01*
X148220000Y-109390000D02*
X146700000Y-109390000D01*
X146700000Y-109390000D02*
X146700000Y-108680000D01*
G36*
X146700000Y-108680000D02*
G01*
X148220000Y-108680000D01*
X148220000Y-109390000D01*
X146700000Y-109390000D01*
X146700000Y-108680000D01*
G37*
X124300000Y-76820000D02*
X127640000Y-76820000D01*
X127640000Y-76820000D02*
X127640000Y-78170000D01*
X127640000Y-78170000D02*
X124300000Y-78170000D01*
X124300000Y-78170000D02*
X124300000Y-76820000D01*
G36*
X124300000Y-76820000D02*
G01*
X127640000Y-76820000D01*
X127640000Y-78170000D01*
X124300000Y-78170000D01*
X124300000Y-76820000D01*
G37*
%TO.C,H3*%
X119338095Y-118967380D02*
X119338095Y-117967380D01*
X119338095Y-118443571D02*
X119909523Y-118443571D01*
X119909523Y-118967380D02*
X119909523Y-117967380D01*
X120290476Y-117967380D02*
X120909523Y-117967380D01*
X120909523Y-117967380D02*
X120576190Y-118348333D01*
X120576190Y-118348333D02*
X120719047Y-118348333D01*
X120719047Y-118348333D02*
X120814285Y-118395952D01*
X120814285Y-118395952D02*
X120861904Y-118443571D01*
X120861904Y-118443571D02*
X120909523Y-118538809D01*
X120909523Y-118538809D02*
X120909523Y-118776904D01*
X120909523Y-118776904D02*
X120861904Y-118872142D01*
X120861904Y-118872142D02*
X120814285Y-118919761D01*
X120814285Y-118919761D02*
X120719047Y-118967380D01*
X120719047Y-118967380D02*
X120433333Y-118967380D01*
X120433333Y-118967380D02*
X120338095Y-118919761D01*
X120338095Y-118919761D02*
X120290476Y-118872142D01*
%TO.C,H2*%
X160438095Y-118767380D02*
X160438095Y-117767380D01*
X160438095Y-118243571D02*
X161009523Y-118243571D01*
X161009523Y-118767380D02*
X161009523Y-117767380D01*
X161438095Y-117862619D02*
X161485714Y-117815000D01*
X161485714Y-117815000D02*
X161580952Y-117767380D01*
X161580952Y-117767380D02*
X161819047Y-117767380D01*
X161819047Y-117767380D02*
X161914285Y-117815000D01*
X161914285Y-117815000D02*
X161961904Y-117862619D01*
X161961904Y-117862619D02*
X162009523Y-117957857D01*
X162009523Y-117957857D02*
X162009523Y-118053095D01*
X162009523Y-118053095D02*
X161961904Y-118195952D01*
X161961904Y-118195952D02*
X161390476Y-118767380D01*
X161390476Y-118767380D02*
X162009523Y-118767380D01*
%TO.C,H4*%
X160938095Y-63867380D02*
X160938095Y-62867380D01*
X160938095Y-63343571D02*
X161509523Y-63343571D01*
X161509523Y-63867380D02*
X161509523Y-62867380D01*
X162414285Y-63200714D02*
X162414285Y-63867380D01*
X162176190Y-62819761D02*
X161938095Y-63534047D01*
X161938095Y-63534047D02*
X162557142Y-63534047D01*
%TO.C,H1*%
X120138095Y-64067380D02*
X120138095Y-63067380D01*
X120138095Y-63543571D02*
X120709523Y-63543571D01*
X120709523Y-64067380D02*
X120709523Y-63067380D01*
X121709523Y-64067380D02*
X121138095Y-64067380D01*
X121423809Y-64067380D02*
X121423809Y-63067380D01*
X121423809Y-63067380D02*
X121328571Y-63210238D01*
X121328571Y-63210238D02*
X121233333Y-63305476D01*
X121233333Y-63305476D02*
X121138095Y-63353095D01*
%TO.C,J2*%
X124616666Y-66987380D02*
X124616666Y-67701666D01*
X124616666Y-67701666D02*
X124569047Y-67844523D01*
X124569047Y-67844523D02*
X124473809Y-67939761D01*
X124473809Y-67939761D02*
X124330952Y-67987380D01*
X124330952Y-67987380D02*
X124235714Y-67987380D01*
X125045238Y-67082619D02*
X125092857Y-67035000D01*
X125092857Y-67035000D02*
X125188095Y-66987380D01*
X125188095Y-66987380D02*
X125426190Y-66987380D01*
X125426190Y-66987380D02*
X125521428Y-67035000D01*
X125521428Y-67035000D02*
X125569047Y-67082619D01*
X125569047Y-67082619D02*
X125616666Y-67177857D01*
X125616666Y-67177857D02*
X125616666Y-67273095D01*
X125616666Y-67273095D02*
X125569047Y-67415952D01*
X125569047Y-67415952D02*
X124997619Y-67987380D01*
X124997619Y-67987380D02*
X125616666Y-67987380D01*
%TO.C,J7*%
X162066666Y-83867380D02*
X162066666Y-84581666D01*
X162066666Y-84581666D02*
X162019047Y-84724523D01*
X162019047Y-84724523D02*
X161923809Y-84819761D01*
X161923809Y-84819761D02*
X161780952Y-84867380D01*
X161780952Y-84867380D02*
X161685714Y-84867380D01*
X162447619Y-83867380D02*
X163114285Y-83867380D01*
X163114285Y-83867380D02*
X162685714Y-84867380D01*
%TO.C,R7*%
X117933333Y-78667380D02*
X117600000Y-78191190D01*
X117361905Y-78667380D02*
X117361905Y-77667380D01*
X117361905Y-77667380D02*
X117742857Y-77667380D01*
X117742857Y-77667380D02*
X117838095Y-77715000D01*
X117838095Y-77715000D02*
X117885714Y-77762619D01*
X117885714Y-77762619D02*
X117933333Y-77857857D01*
X117933333Y-77857857D02*
X117933333Y-78000714D01*
X117933333Y-78000714D02*
X117885714Y-78095952D01*
X117885714Y-78095952D02*
X117838095Y-78143571D01*
X117838095Y-78143571D02*
X117742857Y-78191190D01*
X117742857Y-78191190D02*
X117361905Y-78191190D01*
X118266667Y-77667380D02*
X118933333Y-77667380D01*
X118933333Y-77667380D02*
X118504762Y-78667380D01*
%TO.C,R4*%
X126623333Y-106147380D02*
X126290000Y-105671190D01*
X126051905Y-106147380D02*
X126051905Y-105147380D01*
X126051905Y-105147380D02*
X126432857Y-105147380D01*
X126432857Y-105147380D02*
X126528095Y-105195000D01*
X126528095Y-105195000D02*
X126575714Y-105242619D01*
X126575714Y-105242619D02*
X126623333Y-105337857D01*
X126623333Y-105337857D02*
X126623333Y-105480714D01*
X126623333Y-105480714D02*
X126575714Y-105575952D01*
X126575714Y-105575952D02*
X126528095Y-105623571D01*
X126528095Y-105623571D02*
X126432857Y-105671190D01*
X126432857Y-105671190D02*
X126051905Y-105671190D01*
X127480476Y-105480714D02*
X127480476Y-106147380D01*
X127242381Y-105099761D02*
X127004286Y-105814047D01*
X127004286Y-105814047D02*
X127623333Y-105814047D01*
%TO.C,R3*%
X132443333Y-106267380D02*
X132110000Y-105791190D01*
X131871905Y-106267380D02*
X131871905Y-105267380D01*
X131871905Y-105267380D02*
X132252857Y-105267380D01*
X132252857Y-105267380D02*
X132348095Y-105315000D01*
X132348095Y-105315000D02*
X132395714Y-105362619D01*
X132395714Y-105362619D02*
X132443333Y-105457857D01*
X132443333Y-105457857D02*
X132443333Y-105600714D01*
X132443333Y-105600714D02*
X132395714Y-105695952D01*
X132395714Y-105695952D02*
X132348095Y-105743571D01*
X132348095Y-105743571D02*
X132252857Y-105791190D01*
X132252857Y-105791190D02*
X131871905Y-105791190D01*
X132776667Y-105267380D02*
X133395714Y-105267380D01*
X133395714Y-105267380D02*
X133062381Y-105648333D01*
X133062381Y-105648333D02*
X133205238Y-105648333D01*
X133205238Y-105648333D02*
X133300476Y-105695952D01*
X133300476Y-105695952D02*
X133348095Y-105743571D01*
X133348095Y-105743571D02*
X133395714Y-105838809D01*
X133395714Y-105838809D02*
X133395714Y-106076904D01*
X133395714Y-106076904D02*
X133348095Y-106172142D01*
X133348095Y-106172142D02*
X133300476Y-106219761D01*
X133300476Y-106219761D02*
X133205238Y-106267380D01*
X133205238Y-106267380D02*
X132919524Y-106267380D01*
X132919524Y-106267380D02*
X132824286Y-106219761D01*
X132824286Y-106219761D02*
X132776667Y-106172142D01*
%TO.C,C9*%
X134633333Y-81172142D02*
X134585714Y-81219761D01*
X134585714Y-81219761D02*
X134442857Y-81267380D01*
X134442857Y-81267380D02*
X134347619Y-81267380D01*
X134347619Y-81267380D02*
X134204762Y-81219761D01*
X134204762Y-81219761D02*
X134109524Y-81124523D01*
X134109524Y-81124523D02*
X134061905Y-81029285D01*
X134061905Y-81029285D02*
X134014286Y-80838809D01*
X134014286Y-80838809D02*
X134014286Y-80695952D01*
X134014286Y-80695952D02*
X134061905Y-80505476D01*
X134061905Y-80505476D02*
X134109524Y-80410238D01*
X134109524Y-80410238D02*
X134204762Y-80315000D01*
X134204762Y-80315000D02*
X134347619Y-80267380D01*
X134347619Y-80267380D02*
X134442857Y-80267380D01*
X134442857Y-80267380D02*
X134585714Y-80315000D01*
X134585714Y-80315000D02*
X134633333Y-80362619D01*
X135109524Y-81267380D02*
X135300000Y-81267380D01*
X135300000Y-81267380D02*
X135395238Y-81219761D01*
X135395238Y-81219761D02*
X135442857Y-81172142D01*
X135442857Y-81172142D02*
X135538095Y-81029285D01*
X135538095Y-81029285D02*
X135585714Y-80838809D01*
X135585714Y-80838809D02*
X135585714Y-80457857D01*
X135585714Y-80457857D02*
X135538095Y-80362619D01*
X135538095Y-80362619D02*
X135490476Y-80315000D01*
X135490476Y-80315000D02*
X135395238Y-80267380D01*
X135395238Y-80267380D02*
X135204762Y-80267380D01*
X135204762Y-80267380D02*
X135109524Y-80315000D01*
X135109524Y-80315000D02*
X135061905Y-80362619D01*
X135061905Y-80362619D02*
X135014286Y-80457857D01*
X135014286Y-80457857D02*
X135014286Y-80695952D01*
X135014286Y-80695952D02*
X135061905Y-80791190D01*
X135061905Y-80791190D02*
X135109524Y-80838809D01*
X135109524Y-80838809D02*
X135204762Y-80886428D01*
X135204762Y-80886428D02*
X135395238Y-80886428D01*
X135395238Y-80886428D02*
X135490476Y-80838809D01*
X135490476Y-80838809D02*
X135538095Y-80791190D01*
X135538095Y-80791190D02*
X135585714Y-80695952D01*
%TO.C,U1*%
X117966095Y-100967380D02*
X117966095Y-101776904D01*
X117966095Y-101776904D02*
X118013714Y-101872142D01*
X118013714Y-101872142D02*
X118061333Y-101919761D01*
X118061333Y-101919761D02*
X118156571Y-101967380D01*
X118156571Y-101967380D02*
X118347047Y-101967380D01*
X118347047Y-101967380D02*
X118442285Y-101919761D01*
X118442285Y-101919761D02*
X118489904Y-101872142D01*
X118489904Y-101872142D02*
X118537523Y-101776904D01*
X118537523Y-101776904D02*
X118537523Y-100967380D01*
X119537523Y-101967380D02*
X118966095Y-101967380D01*
X119251809Y-101967380D02*
X119251809Y-100967380D01*
X119251809Y-100967380D02*
X119156571Y-101110238D01*
X119156571Y-101110238D02*
X119061333Y-101205476D01*
X119061333Y-101205476D02*
X118966095Y-101253095D01*
X140085166Y-95380000D02*
X139385166Y-95380000D01*
X139385166Y-95380000D02*
X139385166Y-95213333D01*
X139385166Y-95213333D02*
X139418500Y-95113333D01*
X139418500Y-95113333D02*
X139485166Y-95046667D01*
X139485166Y-95046667D02*
X139551833Y-95013333D01*
X139551833Y-95013333D02*
X139685166Y-94980000D01*
X139685166Y-94980000D02*
X139785166Y-94980000D01*
X139785166Y-94980000D02*
X139918500Y-95013333D01*
X139918500Y-95013333D02*
X139985166Y-95046667D01*
X139985166Y-95046667D02*
X140051833Y-95113333D01*
X140051833Y-95113333D02*
X140085166Y-95213333D01*
X140085166Y-95213333D02*
X140085166Y-95380000D01*
X139385166Y-94780000D02*
X140085166Y-94546667D01*
X140085166Y-94546667D02*
X139385166Y-94313333D01*
X140085166Y-93746667D02*
X140085166Y-94080000D01*
X140085166Y-94080000D02*
X139385166Y-94080000D01*
X139385166Y-93213333D02*
X139385166Y-93346666D01*
X139385166Y-93346666D02*
X139418500Y-93413333D01*
X139418500Y-93413333D02*
X139451833Y-93446666D01*
X139451833Y-93446666D02*
X139551833Y-93513333D01*
X139551833Y-93513333D02*
X139685166Y-93546666D01*
X139685166Y-93546666D02*
X139951833Y-93546666D01*
X139951833Y-93546666D02*
X140018500Y-93513333D01*
X140018500Y-93513333D02*
X140051833Y-93480000D01*
X140051833Y-93480000D02*
X140085166Y-93413333D01*
X140085166Y-93413333D02*
X140085166Y-93280000D01*
X140085166Y-93280000D02*
X140051833Y-93213333D01*
X140051833Y-93213333D02*
X140018500Y-93180000D01*
X140018500Y-93180000D02*
X139951833Y-93146666D01*
X139951833Y-93146666D02*
X139785166Y-93146666D01*
X139785166Y-93146666D02*
X139718500Y-93180000D01*
X139718500Y-93180000D02*
X139685166Y-93213333D01*
X139685166Y-93213333D02*
X139651833Y-93280000D01*
X139651833Y-93280000D02*
X139651833Y-93413333D01*
X139651833Y-93413333D02*
X139685166Y-93480000D01*
X139685166Y-93480000D02*
X139718500Y-93513333D01*
X139718500Y-93513333D02*
X139785166Y-93546666D01*
X139885166Y-92879999D02*
X139885166Y-92546666D01*
X140085166Y-92946666D02*
X139385166Y-92713333D01*
X139385166Y-92713333D02*
X140085166Y-92479999D01*
X138561166Y-97063333D02*
X137861166Y-97063333D01*
X137861166Y-97063333D02*
X138361166Y-96830000D01*
X138361166Y-96830000D02*
X137861166Y-96596666D01*
X137861166Y-96596666D02*
X138561166Y-96596666D01*
X138561166Y-96263333D02*
X137861166Y-96263333D01*
X138561166Y-95930000D02*
X137861166Y-95930000D01*
X137861166Y-95930000D02*
X138361166Y-95696667D01*
X138361166Y-95696667D02*
X137861166Y-95463333D01*
X137861166Y-95463333D02*
X138561166Y-95463333D01*
X137861166Y-95196667D02*
X138561166Y-94730000D01*
X137861166Y-94730000D02*
X138561166Y-95196667D01*
X138561166Y-94063333D02*
X138227833Y-94296666D01*
X138561166Y-94463333D02*
X137861166Y-94463333D01*
X137861166Y-94463333D02*
X137861166Y-94196666D01*
X137861166Y-94196666D02*
X137894500Y-94130000D01*
X137894500Y-94130000D02*
X137927833Y-94096666D01*
X137927833Y-94096666D02*
X137994500Y-94063333D01*
X137994500Y-94063333D02*
X138094500Y-94063333D01*
X138094500Y-94063333D02*
X138161166Y-94096666D01*
X138161166Y-94096666D02*
X138194500Y-94130000D01*
X138194500Y-94130000D02*
X138227833Y-94196666D01*
X138227833Y-94196666D02*
X138227833Y-94463333D01*
X137861166Y-93863333D02*
X137861166Y-93463333D01*
X138561166Y-93663333D02*
X137861166Y-93663333D01*
X138561166Y-92863333D02*
X138561166Y-93263333D01*
X138561166Y-93063333D02*
X137861166Y-93063333D01*
X137861166Y-93063333D02*
X137961166Y-93130000D01*
X137961166Y-93130000D02*
X138027833Y-93196667D01*
X138027833Y-93196667D02*
X138061166Y-93263333D01*
X137861166Y-92430000D02*
X137861166Y-92363333D01*
X137861166Y-92363333D02*
X137894500Y-92296666D01*
X137894500Y-92296666D02*
X137927833Y-92263333D01*
X137927833Y-92263333D02*
X137994500Y-92230000D01*
X137994500Y-92230000D02*
X138127833Y-92196666D01*
X138127833Y-92196666D02*
X138294500Y-92196666D01*
X138294500Y-92196666D02*
X138427833Y-92230000D01*
X138427833Y-92230000D02*
X138494500Y-92263333D01*
X138494500Y-92263333D02*
X138527833Y-92296666D01*
X138527833Y-92296666D02*
X138561166Y-92363333D01*
X138561166Y-92363333D02*
X138561166Y-92430000D01*
X138561166Y-92430000D02*
X138527833Y-92496666D01*
X138527833Y-92496666D02*
X138494500Y-92530000D01*
X138494500Y-92530000D02*
X138427833Y-92563333D01*
X138427833Y-92563333D02*
X138294500Y-92596666D01*
X138294500Y-92596666D02*
X138127833Y-92596666D01*
X138127833Y-92596666D02*
X137994500Y-92563333D01*
X137994500Y-92563333D02*
X137927833Y-92530000D01*
X137927833Y-92530000D02*
X137894500Y-92496666D01*
X137894500Y-92496666D02*
X137861166Y-92430000D01*
X137861166Y-91596666D02*
X137861166Y-91729999D01*
X137861166Y-91729999D02*
X137894500Y-91796666D01*
X137894500Y-91796666D02*
X137927833Y-91829999D01*
X137927833Y-91829999D02*
X138027833Y-91896666D01*
X138027833Y-91896666D02*
X138161166Y-91929999D01*
X138161166Y-91929999D02*
X138427833Y-91929999D01*
X138427833Y-91929999D02*
X138494500Y-91896666D01*
X138494500Y-91896666D02*
X138527833Y-91863333D01*
X138527833Y-91863333D02*
X138561166Y-91796666D01*
X138561166Y-91796666D02*
X138561166Y-91663333D01*
X138561166Y-91663333D02*
X138527833Y-91596666D01*
X138527833Y-91596666D02*
X138494500Y-91563333D01*
X138494500Y-91563333D02*
X138427833Y-91529999D01*
X138427833Y-91529999D02*
X138261166Y-91529999D01*
X138261166Y-91529999D02*
X138194500Y-91563333D01*
X138194500Y-91563333D02*
X138161166Y-91596666D01*
X138161166Y-91596666D02*
X138127833Y-91663333D01*
X138127833Y-91663333D02*
X138127833Y-91796666D01*
X138127833Y-91796666D02*
X138161166Y-91863333D01*
X138161166Y-91863333D02*
X138194500Y-91896666D01*
X138194500Y-91896666D02*
X138261166Y-91929999D01*
X137927833Y-91263332D02*
X137894500Y-91229999D01*
X137894500Y-91229999D02*
X137861166Y-91163332D01*
X137861166Y-91163332D02*
X137861166Y-90996666D01*
X137861166Y-90996666D02*
X137894500Y-90929999D01*
X137894500Y-90929999D02*
X137927833Y-90896666D01*
X137927833Y-90896666D02*
X137994500Y-90863332D01*
X137994500Y-90863332D02*
X138061166Y-90863332D01*
X138061166Y-90863332D02*
X138161166Y-90896666D01*
X138161166Y-90896666D02*
X138561166Y-91296666D01*
X138561166Y-91296666D02*
X138561166Y-90863332D01*
%TO.C,R2*%
X149893333Y-70207380D02*
X149560000Y-69731190D01*
X149321905Y-70207380D02*
X149321905Y-69207380D01*
X149321905Y-69207380D02*
X149702857Y-69207380D01*
X149702857Y-69207380D02*
X149798095Y-69255000D01*
X149798095Y-69255000D02*
X149845714Y-69302619D01*
X149845714Y-69302619D02*
X149893333Y-69397857D01*
X149893333Y-69397857D02*
X149893333Y-69540714D01*
X149893333Y-69540714D02*
X149845714Y-69635952D01*
X149845714Y-69635952D02*
X149798095Y-69683571D01*
X149798095Y-69683571D02*
X149702857Y-69731190D01*
X149702857Y-69731190D02*
X149321905Y-69731190D01*
X150274286Y-69302619D02*
X150321905Y-69255000D01*
X150321905Y-69255000D02*
X150417143Y-69207380D01*
X150417143Y-69207380D02*
X150655238Y-69207380D01*
X150655238Y-69207380D02*
X150750476Y-69255000D01*
X150750476Y-69255000D02*
X150798095Y-69302619D01*
X150798095Y-69302619D02*
X150845714Y-69397857D01*
X150845714Y-69397857D02*
X150845714Y-69493095D01*
X150845714Y-69493095D02*
X150798095Y-69635952D01*
X150798095Y-69635952D02*
X150226667Y-70207380D01*
X150226667Y-70207380D02*
X150845714Y-70207380D01*
%TO.C,J6*%
X135766666Y-112667380D02*
X135766666Y-113381666D01*
X135766666Y-113381666D02*
X135719047Y-113524523D01*
X135719047Y-113524523D02*
X135623809Y-113619761D01*
X135623809Y-113619761D02*
X135480952Y-113667380D01*
X135480952Y-113667380D02*
X135385714Y-113667380D01*
X136671428Y-112667380D02*
X136480952Y-112667380D01*
X136480952Y-112667380D02*
X136385714Y-112715000D01*
X136385714Y-112715000D02*
X136338095Y-112762619D01*
X136338095Y-112762619D02*
X136242857Y-112905476D01*
X136242857Y-112905476D02*
X136195238Y-113095952D01*
X136195238Y-113095952D02*
X136195238Y-113476904D01*
X136195238Y-113476904D02*
X136242857Y-113572142D01*
X136242857Y-113572142D02*
X136290476Y-113619761D01*
X136290476Y-113619761D02*
X136385714Y-113667380D01*
X136385714Y-113667380D02*
X136576190Y-113667380D01*
X136576190Y-113667380D02*
X136671428Y-113619761D01*
X136671428Y-113619761D02*
X136719047Y-113572142D01*
X136719047Y-113572142D02*
X136766666Y-113476904D01*
X136766666Y-113476904D02*
X136766666Y-113238809D01*
X136766666Y-113238809D02*
X136719047Y-113143571D01*
X136719047Y-113143571D02*
X136671428Y-113095952D01*
X136671428Y-113095952D02*
X136576190Y-113048333D01*
X136576190Y-113048333D02*
X136385714Y-113048333D01*
X136385714Y-113048333D02*
X136290476Y-113095952D01*
X136290476Y-113095952D02*
X136242857Y-113143571D01*
X136242857Y-113143571D02*
X136195238Y-113238809D01*
%TO.C,J5*%
X161866666Y-101947380D02*
X161866666Y-102661666D01*
X161866666Y-102661666D02*
X161819047Y-102804523D01*
X161819047Y-102804523D02*
X161723809Y-102899761D01*
X161723809Y-102899761D02*
X161580952Y-102947380D01*
X161580952Y-102947380D02*
X161485714Y-102947380D01*
X162819047Y-101947380D02*
X162342857Y-101947380D01*
X162342857Y-101947380D02*
X162295238Y-102423571D01*
X162295238Y-102423571D02*
X162342857Y-102375952D01*
X162342857Y-102375952D02*
X162438095Y-102328333D01*
X162438095Y-102328333D02*
X162676190Y-102328333D01*
X162676190Y-102328333D02*
X162771428Y-102375952D01*
X162771428Y-102375952D02*
X162819047Y-102423571D01*
X162819047Y-102423571D02*
X162866666Y-102518809D01*
X162866666Y-102518809D02*
X162866666Y-102756904D01*
X162866666Y-102756904D02*
X162819047Y-102852142D01*
X162819047Y-102852142D02*
X162771428Y-102899761D01*
X162771428Y-102899761D02*
X162676190Y-102947380D01*
X162676190Y-102947380D02*
X162438095Y-102947380D01*
X162438095Y-102947380D02*
X162342857Y-102899761D01*
X162342857Y-102899761D02*
X162295238Y-102852142D01*
%TO.C,C10*%
X134157142Y-82572142D02*
X134109523Y-82619761D01*
X134109523Y-82619761D02*
X133966666Y-82667380D01*
X133966666Y-82667380D02*
X133871428Y-82667380D01*
X133871428Y-82667380D02*
X133728571Y-82619761D01*
X133728571Y-82619761D02*
X133633333Y-82524523D01*
X133633333Y-82524523D02*
X133585714Y-82429285D01*
X133585714Y-82429285D02*
X133538095Y-82238809D01*
X133538095Y-82238809D02*
X133538095Y-82095952D01*
X133538095Y-82095952D02*
X133585714Y-81905476D01*
X133585714Y-81905476D02*
X133633333Y-81810238D01*
X133633333Y-81810238D02*
X133728571Y-81715000D01*
X133728571Y-81715000D02*
X133871428Y-81667380D01*
X133871428Y-81667380D02*
X133966666Y-81667380D01*
X133966666Y-81667380D02*
X134109523Y-81715000D01*
X134109523Y-81715000D02*
X134157142Y-81762619D01*
X135109523Y-82667380D02*
X134538095Y-82667380D01*
X134823809Y-82667380D02*
X134823809Y-81667380D01*
X134823809Y-81667380D02*
X134728571Y-81810238D01*
X134728571Y-81810238D02*
X134633333Y-81905476D01*
X134633333Y-81905476D02*
X134538095Y-81953095D01*
X135728571Y-81667380D02*
X135823809Y-81667380D01*
X135823809Y-81667380D02*
X135919047Y-81715000D01*
X135919047Y-81715000D02*
X135966666Y-81762619D01*
X135966666Y-81762619D02*
X136014285Y-81857857D01*
X136014285Y-81857857D02*
X136061904Y-82048333D01*
X136061904Y-82048333D02*
X136061904Y-82286428D01*
X136061904Y-82286428D02*
X136014285Y-82476904D01*
X136014285Y-82476904D02*
X135966666Y-82572142D01*
X135966666Y-82572142D02*
X135919047Y-82619761D01*
X135919047Y-82619761D02*
X135823809Y-82667380D01*
X135823809Y-82667380D02*
X135728571Y-82667380D01*
X135728571Y-82667380D02*
X135633333Y-82619761D01*
X135633333Y-82619761D02*
X135585714Y-82572142D01*
X135585714Y-82572142D02*
X135538095Y-82476904D01*
X135538095Y-82476904D02*
X135490476Y-82286428D01*
X135490476Y-82286428D02*
X135490476Y-82048333D01*
X135490476Y-82048333D02*
X135538095Y-81857857D01*
X135538095Y-81857857D02*
X135585714Y-81762619D01*
X135585714Y-81762619D02*
X135633333Y-81715000D01*
X135633333Y-81715000D02*
X135728571Y-81667380D01*
%TO.C,C2*%
X157333333Y-92434642D02*
X157285714Y-92482261D01*
X157285714Y-92482261D02*
X157142857Y-92529880D01*
X157142857Y-92529880D02*
X157047619Y-92529880D01*
X157047619Y-92529880D02*
X156904762Y-92482261D01*
X156904762Y-92482261D02*
X156809524Y-92387023D01*
X156809524Y-92387023D02*
X156761905Y-92291785D01*
X156761905Y-92291785D02*
X156714286Y-92101309D01*
X156714286Y-92101309D02*
X156714286Y-91958452D01*
X156714286Y-91958452D02*
X156761905Y-91767976D01*
X156761905Y-91767976D02*
X156809524Y-91672738D01*
X156809524Y-91672738D02*
X156904762Y-91577500D01*
X156904762Y-91577500D02*
X157047619Y-91529880D01*
X157047619Y-91529880D02*
X157142857Y-91529880D01*
X157142857Y-91529880D02*
X157285714Y-91577500D01*
X157285714Y-91577500D02*
X157333333Y-91625119D01*
X157714286Y-91625119D02*
X157761905Y-91577500D01*
X157761905Y-91577500D02*
X157857143Y-91529880D01*
X157857143Y-91529880D02*
X158095238Y-91529880D01*
X158095238Y-91529880D02*
X158190476Y-91577500D01*
X158190476Y-91577500D02*
X158238095Y-91625119D01*
X158238095Y-91625119D02*
X158285714Y-91720357D01*
X158285714Y-91720357D02*
X158285714Y-91815595D01*
X158285714Y-91815595D02*
X158238095Y-91958452D01*
X158238095Y-91958452D02*
X157666667Y-92529880D01*
X157666667Y-92529880D02*
X158285714Y-92529880D01*
%TO.C,R8*%
X117933333Y-80767380D02*
X117600000Y-80291190D01*
X117361905Y-80767380D02*
X117361905Y-79767380D01*
X117361905Y-79767380D02*
X117742857Y-79767380D01*
X117742857Y-79767380D02*
X117838095Y-79815000D01*
X117838095Y-79815000D02*
X117885714Y-79862619D01*
X117885714Y-79862619D02*
X117933333Y-79957857D01*
X117933333Y-79957857D02*
X117933333Y-80100714D01*
X117933333Y-80100714D02*
X117885714Y-80195952D01*
X117885714Y-80195952D02*
X117838095Y-80243571D01*
X117838095Y-80243571D02*
X117742857Y-80291190D01*
X117742857Y-80291190D02*
X117361905Y-80291190D01*
X118504762Y-80195952D02*
X118409524Y-80148333D01*
X118409524Y-80148333D02*
X118361905Y-80100714D01*
X118361905Y-80100714D02*
X118314286Y-80005476D01*
X118314286Y-80005476D02*
X118314286Y-79957857D01*
X118314286Y-79957857D02*
X118361905Y-79862619D01*
X118361905Y-79862619D02*
X118409524Y-79815000D01*
X118409524Y-79815000D02*
X118504762Y-79767380D01*
X118504762Y-79767380D02*
X118695238Y-79767380D01*
X118695238Y-79767380D02*
X118790476Y-79815000D01*
X118790476Y-79815000D02*
X118838095Y-79862619D01*
X118838095Y-79862619D02*
X118885714Y-79957857D01*
X118885714Y-79957857D02*
X118885714Y-80005476D01*
X118885714Y-80005476D02*
X118838095Y-80100714D01*
X118838095Y-80100714D02*
X118790476Y-80148333D01*
X118790476Y-80148333D02*
X118695238Y-80195952D01*
X118695238Y-80195952D02*
X118504762Y-80195952D01*
X118504762Y-80195952D02*
X118409524Y-80243571D01*
X118409524Y-80243571D02*
X118361905Y-80291190D01*
X118361905Y-80291190D02*
X118314286Y-80386428D01*
X118314286Y-80386428D02*
X118314286Y-80576904D01*
X118314286Y-80576904D02*
X118361905Y-80672142D01*
X118361905Y-80672142D02*
X118409524Y-80719761D01*
X118409524Y-80719761D02*
X118504762Y-80767380D01*
X118504762Y-80767380D02*
X118695238Y-80767380D01*
X118695238Y-80767380D02*
X118790476Y-80719761D01*
X118790476Y-80719761D02*
X118838095Y-80672142D01*
X118838095Y-80672142D02*
X118885714Y-80576904D01*
X118885714Y-80576904D02*
X118885714Y-80386428D01*
X118885714Y-80386428D02*
X118838095Y-80291190D01*
X118838095Y-80291190D02*
X118790476Y-80243571D01*
X118790476Y-80243571D02*
X118695238Y-80195952D01*
%TO.C,C6*%
X138633333Y-105072142D02*
X138585714Y-105119761D01*
X138585714Y-105119761D02*
X138442857Y-105167380D01*
X138442857Y-105167380D02*
X138347619Y-105167380D01*
X138347619Y-105167380D02*
X138204762Y-105119761D01*
X138204762Y-105119761D02*
X138109524Y-105024523D01*
X138109524Y-105024523D02*
X138061905Y-104929285D01*
X138061905Y-104929285D02*
X138014286Y-104738809D01*
X138014286Y-104738809D02*
X138014286Y-104595952D01*
X138014286Y-104595952D02*
X138061905Y-104405476D01*
X138061905Y-104405476D02*
X138109524Y-104310238D01*
X138109524Y-104310238D02*
X138204762Y-104215000D01*
X138204762Y-104215000D02*
X138347619Y-104167380D01*
X138347619Y-104167380D02*
X138442857Y-104167380D01*
X138442857Y-104167380D02*
X138585714Y-104215000D01*
X138585714Y-104215000D02*
X138633333Y-104262619D01*
X139490476Y-104167380D02*
X139300000Y-104167380D01*
X139300000Y-104167380D02*
X139204762Y-104215000D01*
X139204762Y-104215000D02*
X139157143Y-104262619D01*
X139157143Y-104262619D02*
X139061905Y-104405476D01*
X139061905Y-104405476D02*
X139014286Y-104595952D01*
X139014286Y-104595952D02*
X139014286Y-104976904D01*
X139014286Y-104976904D02*
X139061905Y-105072142D01*
X139061905Y-105072142D02*
X139109524Y-105119761D01*
X139109524Y-105119761D02*
X139204762Y-105167380D01*
X139204762Y-105167380D02*
X139395238Y-105167380D01*
X139395238Y-105167380D02*
X139490476Y-105119761D01*
X139490476Y-105119761D02*
X139538095Y-105072142D01*
X139538095Y-105072142D02*
X139585714Y-104976904D01*
X139585714Y-104976904D02*
X139585714Y-104738809D01*
X139585714Y-104738809D02*
X139538095Y-104643571D01*
X139538095Y-104643571D02*
X139490476Y-104595952D01*
X139490476Y-104595952D02*
X139395238Y-104548333D01*
X139395238Y-104548333D02*
X139204762Y-104548333D01*
X139204762Y-104548333D02*
X139109524Y-104595952D01*
X139109524Y-104595952D02*
X139061905Y-104643571D01*
X139061905Y-104643571D02*
X139014286Y-104738809D01*
%TO.C,U3*%
X142078095Y-74587380D02*
X142078095Y-75396904D01*
X142078095Y-75396904D02*
X142125714Y-75492142D01*
X142125714Y-75492142D02*
X142173333Y-75539761D01*
X142173333Y-75539761D02*
X142268571Y-75587380D01*
X142268571Y-75587380D02*
X142459047Y-75587380D01*
X142459047Y-75587380D02*
X142554285Y-75539761D01*
X142554285Y-75539761D02*
X142601904Y-75492142D01*
X142601904Y-75492142D02*
X142649523Y-75396904D01*
X142649523Y-75396904D02*
X142649523Y-74587380D01*
X143030476Y-74587380D02*
X143649523Y-74587380D01*
X143649523Y-74587380D02*
X143316190Y-74968333D01*
X143316190Y-74968333D02*
X143459047Y-74968333D01*
X143459047Y-74968333D02*
X143554285Y-75015952D01*
X143554285Y-75015952D02*
X143601904Y-75063571D01*
X143601904Y-75063571D02*
X143649523Y-75158809D01*
X143649523Y-75158809D02*
X143649523Y-75396904D01*
X143649523Y-75396904D02*
X143601904Y-75492142D01*
X143601904Y-75492142D02*
X143554285Y-75539761D01*
X143554285Y-75539761D02*
X143459047Y-75587380D01*
X143459047Y-75587380D02*
X143173333Y-75587380D01*
X143173333Y-75587380D02*
X143078095Y-75539761D01*
X143078095Y-75539761D02*
X143030476Y-75492142D01*
%TO.C,C11*%
X147757142Y-105292142D02*
X147709523Y-105339761D01*
X147709523Y-105339761D02*
X147566666Y-105387380D01*
X147566666Y-105387380D02*
X147471428Y-105387380D01*
X147471428Y-105387380D02*
X147328571Y-105339761D01*
X147328571Y-105339761D02*
X147233333Y-105244523D01*
X147233333Y-105244523D02*
X147185714Y-105149285D01*
X147185714Y-105149285D02*
X147138095Y-104958809D01*
X147138095Y-104958809D02*
X147138095Y-104815952D01*
X147138095Y-104815952D02*
X147185714Y-104625476D01*
X147185714Y-104625476D02*
X147233333Y-104530238D01*
X147233333Y-104530238D02*
X147328571Y-104435000D01*
X147328571Y-104435000D02*
X147471428Y-104387380D01*
X147471428Y-104387380D02*
X147566666Y-104387380D01*
X147566666Y-104387380D02*
X147709523Y-104435000D01*
X147709523Y-104435000D02*
X147757142Y-104482619D01*
X148709523Y-105387380D02*
X148138095Y-105387380D01*
X148423809Y-105387380D02*
X148423809Y-104387380D01*
X148423809Y-104387380D02*
X148328571Y-104530238D01*
X148328571Y-104530238D02*
X148233333Y-104625476D01*
X148233333Y-104625476D02*
X148138095Y-104673095D01*
X149661904Y-105387380D02*
X149090476Y-105387380D01*
X149376190Y-105387380D02*
X149376190Y-104387380D01*
X149376190Y-104387380D02*
X149280952Y-104530238D01*
X149280952Y-104530238D02*
X149185714Y-104625476D01*
X149185714Y-104625476D02*
X149090476Y-104673095D01*
%TO.C,J3*%
X126666666Y-112767380D02*
X126666666Y-113481666D01*
X126666666Y-113481666D02*
X126619047Y-113624523D01*
X126619047Y-113624523D02*
X126523809Y-113719761D01*
X126523809Y-113719761D02*
X126380952Y-113767380D01*
X126380952Y-113767380D02*
X126285714Y-113767380D01*
X127047619Y-112767380D02*
X127666666Y-112767380D01*
X127666666Y-112767380D02*
X127333333Y-113148333D01*
X127333333Y-113148333D02*
X127476190Y-113148333D01*
X127476190Y-113148333D02*
X127571428Y-113195952D01*
X127571428Y-113195952D02*
X127619047Y-113243571D01*
X127619047Y-113243571D02*
X127666666Y-113338809D01*
X127666666Y-113338809D02*
X127666666Y-113576904D01*
X127666666Y-113576904D02*
X127619047Y-113672142D01*
X127619047Y-113672142D02*
X127571428Y-113719761D01*
X127571428Y-113719761D02*
X127476190Y-113767380D01*
X127476190Y-113767380D02*
X127190476Y-113767380D01*
X127190476Y-113767380D02*
X127095238Y-113719761D01*
X127095238Y-113719761D02*
X127047619Y-113672142D01*
%TO.C,R6*%
X117933333Y-82767380D02*
X117600000Y-82291190D01*
X117361905Y-82767380D02*
X117361905Y-81767380D01*
X117361905Y-81767380D02*
X117742857Y-81767380D01*
X117742857Y-81767380D02*
X117838095Y-81815000D01*
X117838095Y-81815000D02*
X117885714Y-81862619D01*
X117885714Y-81862619D02*
X117933333Y-81957857D01*
X117933333Y-81957857D02*
X117933333Y-82100714D01*
X117933333Y-82100714D02*
X117885714Y-82195952D01*
X117885714Y-82195952D02*
X117838095Y-82243571D01*
X117838095Y-82243571D02*
X117742857Y-82291190D01*
X117742857Y-82291190D02*
X117361905Y-82291190D01*
X118790476Y-81767380D02*
X118600000Y-81767380D01*
X118600000Y-81767380D02*
X118504762Y-81815000D01*
X118504762Y-81815000D02*
X118457143Y-81862619D01*
X118457143Y-81862619D02*
X118361905Y-82005476D01*
X118361905Y-82005476D02*
X118314286Y-82195952D01*
X118314286Y-82195952D02*
X118314286Y-82576904D01*
X118314286Y-82576904D02*
X118361905Y-82672142D01*
X118361905Y-82672142D02*
X118409524Y-82719761D01*
X118409524Y-82719761D02*
X118504762Y-82767380D01*
X118504762Y-82767380D02*
X118695238Y-82767380D01*
X118695238Y-82767380D02*
X118790476Y-82719761D01*
X118790476Y-82719761D02*
X118838095Y-82672142D01*
X118838095Y-82672142D02*
X118885714Y-82576904D01*
X118885714Y-82576904D02*
X118885714Y-82338809D01*
X118885714Y-82338809D02*
X118838095Y-82243571D01*
X118838095Y-82243571D02*
X118790476Y-82195952D01*
X118790476Y-82195952D02*
X118695238Y-82148333D01*
X118695238Y-82148333D02*
X118504762Y-82148333D01*
X118504762Y-82148333D02*
X118409524Y-82195952D01*
X118409524Y-82195952D02*
X118361905Y-82243571D01*
X118361905Y-82243571D02*
X118314286Y-82338809D01*
%TO.C,J1*%
X157020666Y-66967380D02*
X157020666Y-67681666D01*
X157020666Y-67681666D02*
X156973047Y-67824523D01*
X156973047Y-67824523D02*
X156877809Y-67919761D01*
X156877809Y-67919761D02*
X156734952Y-67967380D01*
X156734952Y-67967380D02*
X156639714Y-67967380D01*
X158020666Y-67967380D02*
X157449238Y-67967380D01*
X157734952Y-67967380D02*
X157734952Y-66967380D01*
X157734952Y-66967380D02*
X157639714Y-67110238D01*
X157639714Y-67110238D02*
X157544476Y-67205476D01*
X157544476Y-67205476D02*
X157449238Y-67253095D01*
%TO.C,C3*%
X154383333Y-69822142D02*
X154335714Y-69869761D01*
X154335714Y-69869761D02*
X154192857Y-69917380D01*
X154192857Y-69917380D02*
X154097619Y-69917380D01*
X154097619Y-69917380D02*
X153954762Y-69869761D01*
X153954762Y-69869761D02*
X153859524Y-69774523D01*
X153859524Y-69774523D02*
X153811905Y-69679285D01*
X153811905Y-69679285D02*
X153764286Y-69488809D01*
X153764286Y-69488809D02*
X153764286Y-69345952D01*
X153764286Y-69345952D02*
X153811905Y-69155476D01*
X153811905Y-69155476D02*
X153859524Y-69060238D01*
X153859524Y-69060238D02*
X153954762Y-68965000D01*
X153954762Y-68965000D02*
X154097619Y-68917380D01*
X154097619Y-68917380D02*
X154192857Y-68917380D01*
X154192857Y-68917380D02*
X154335714Y-68965000D01*
X154335714Y-68965000D02*
X154383333Y-69012619D01*
X154716667Y-68917380D02*
X155335714Y-68917380D01*
X155335714Y-68917380D02*
X155002381Y-69298333D01*
X155002381Y-69298333D02*
X155145238Y-69298333D01*
X155145238Y-69298333D02*
X155240476Y-69345952D01*
X155240476Y-69345952D02*
X155288095Y-69393571D01*
X155288095Y-69393571D02*
X155335714Y-69488809D01*
X155335714Y-69488809D02*
X155335714Y-69726904D01*
X155335714Y-69726904D02*
X155288095Y-69822142D01*
X155288095Y-69822142D02*
X155240476Y-69869761D01*
X155240476Y-69869761D02*
X155145238Y-69917380D01*
X155145238Y-69917380D02*
X154859524Y-69917380D01*
X154859524Y-69917380D02*
X154764286Y-69869761D01*
X154764286Y-69869761D02*
X154716667Y-69822142D01*
%TO.C,C8*%
X143595833Y-105172142D02*
X143548214Y-105219761D01*
X143548214Y-105219761D02*
X143405357Y-105267380D01*
X143405357Y-105267380D02*
X143310119Y-105267380D01*
X143310119Y-105267380D02*
X143167262Y-105219761D01*
X143167262Y-105219761D02*
X143072024Y-105124523D01*
X143072024Y-105124523D02*
X143024405Y-105029285D01*
X143024405Y-105029285D02*
X142976786Y-104838809D01*
X142976786Y-104838809D02*
X142976786Y-104695952D01*
X142976786Y-104695952D02*
X143024405Y-104505476D01*
X143024405Y-104505476D02*
X143072024Y-104410238D01*
X143072024Y-104410238D02*
X143167262Y-104315000D01*
X143167262Y-104315000D02*
X143310119Y-104267380D01*
X143310119Y-104267380D02*
X143405357Y-104267380D01*
X143405357Y-104267380D02*
X143548214Y-104315000D01*
X143548214Y-104315000D02*
X143595833Y-104362619D01*
X144167262Y-104695952D02*
X144072024Y-104648333D01*
X144072024Y-104648333D02*
X144024405Y-104600714D01*
X144024405Y-104600714D02*
X143976786Y-104505476D01*
X143976786Y-104505476D02*
X143976786Y-104457857D01*
X143976786Y-104457857D02*
X144024405Y-104362619D01*
X144024405Y-104362619D02*
X144072024Y-104315000D01*
X144072024Y-104315000D02*
X144167262Y-104267380D01*
X144167262Y-104267380D02*
X144357738Y-104267380D01*
X144357738Y-104267380D02*
X144452976Y-104315000D01*
X144452976Y-104315000D02*
X144500595Y-104362619D01*
X144500595Y-104362619D02*
X144548214Y-104457857D01*
X144548214Y-104457857D02*
X144548214Y-104505476D01*
X144548214Y-104505476D02*
X144500595Y-104600714D01*
X144500595Y-104600714D02*
X144452976Y-104648333D01*
X144452976Y-104648333D02*
X144357738Y-104695952D01*
X144357738Y-104695952D02*
X144167262Y-104695952D01*
X144167262Y-104695952D02*
X144072024Y-104743571D01*
X144072024Y-104743571D02*
X144024405Y-104791190D01*
X144024405Y-104791190D02*
X143976786Y-104886428D01*
X143976786Y-104886428D02*
X143976786Y-105076904D01*
X143976786Y-105076904D02*
X144024405Y-105172142D01*
X144024405Y-105172142D02*
X144072024Y-105219761D01*
X144072024Y-105219761D02*
X144167262Y-105267380D01*
X144167262Y-105267380D02*
X144357738Y-105267380D01*
X144357738Y-105267380D02*
X144452976Y-105219761D01*
X144452976Y-105219761D02*
X144500595Y-105172142D01*
X144500595Y-105172142D02*
X144548214Y-105076904D01*
X144548214Y-105076904D02*
X144548214Y-104886428D01*
X144548214Y-104886428D02*
X144500595Y-104791190D01*
X144500595Y-104791190D02*
X144452976Y-104743571D01*
X144452976Y-104743571D02*
X144357738Y-104695952D01*
%TO.C,C5*%
X143183333Y-73772142D02*
X143135714Y-73819761D01*
X143135714Y-73819761D02*
X142992857Y-73867380D01*
X142992857Y-73867380D02*
X142897619Y-73867380D01*
X142897619Y-73867380D02*
X142754762Y-73819761D01*
X142754762Y-73819761D02*
X142659524Y-73724523D01*
X142659524Y-73724523D02*
X142611905Y-73629285D01*
X142611905Y-73629285D02*
X142564286Y-73438809D01*
X142564286Y-73438809D02*
X142564286Y-73295952D01*
X142564286Y-73295952D02*
X142611905Y-73105476D01*
X142611905Y-73105476D02*
X142659524Y-73010238D01*
X142659524Y-73010238D02*
X142754762Y-72915000D01*
X142754762Y-72915000D02*
X142897619Y-72867380D01*
X142897619Y-72867380D02*
X142992857Y-72867380D01*
X142992857Y-72867380D02*
X143135714Y-72915000D01*
X143135714Y-72915000D02*
X143183333Y-72962619D01*
X144088095Y-72867380D02*
X143611905Y-72867380D01*
X143611905Y-72867380D02*
X143564286Y-73343571D01*
X143564286Y-73343571D02*
X143611905Y-73295952D01*
X143611905Y-73295952D02*
X143707143Y-73248333D01*
X143707143Y-73248333D02*
X143945238Y-73248333D01*
X143945238Y-73248333D02*
X144040476Y-73295952D01*
X144040476Y-73295952D02*
X144088095Y-73343571D01*
X144088095Y-73343571D02*
X144135714Y-73438809D01*
X144135714Y-73438809D02*
X144135714Y-73676904D01*
X144135714Y-73676904D02*
X144088095Y-73772142D01*
X144088095Y-73772142D02*
X144040476Y-73819761D01*
X144040476Y-73819761D02*
X143945238Y-73867380D01*
X143945238Y-73867380D02*
X143707143Y-73867380D01*
X143707143Y-73867380D02*
X143611905Y-73819761D01*
X143611905Y-73819761D02*
X143564286Y-73772142D01*
%TO.C,U5*%
X127838095Y-75467380D02*
X127838095Y-76276904D01*
X127838095Y-76276904D02*
X127885714Y-76372142D01*
X127885714Y-76372142D02*
X127933333Y-76419761D01*
X127933333Y-76419761D02*
X128028571Y-76467380D01*
X128028571Y-76467380D02*
X128219047Y-76467380D01*
X128219047Y-76467380D02*
X128314285Y-76419761D01*
X128314285Y-76419761D02*
X128361904Y-76372142D01*
X128361904Y-76372142D02*
X128409523Y-76276904D01*
X128409523Y-76276904D02*
X128409523Y-75467380D01*
X129361904Y-75467380D02*
X128885714Y-75467380D01*
X128885714Y-75467380D02*
X128838095Y-75943571D01*
X128838095Y-75943571D02*
X128885714Y-75895952D01*
X128885714Y-75895952D02*
X128980952Y-75848333D01*
X128980952Y-75848333D02*
X129219047Y-75848333D01*
X129219047Y-75848333D02*
X129314285Y-75895952D01*
X129314285Y-75895952D02*
X129361904Y-75943571D01*
X129361904Y-75943571D02*
X129409523Y-76038809D01*
X129409523Y-76038809D02*
X129409523Y-76276904D01*
X129409523Y-76276904D02*
X129361904Y-76372142D01*
X129361904Y-76372142D02*
X129314285Y-76419761D01*
X129314285Y-76419761D02*
X129219047Y-76467380D01*
X129219047Y-76467380D02*
X128980952Y-76467380D01*
X128980952Y-76467380D02*
X128885714Y-76419761D01*
X128885714Y-76419761D02*
X128838095Y-76372142D01*
%TO.C,D3*%
X128561905Y-106867380D02*
X128561905Y-105867380D01*
X128561905Y-105867380D02*
X128800000Y-105867380D01*
X128800000Y-105867380D02*
X128942857Y-105915000D01*
X128942857Y-105915000D02*
X129038095Y-106010238D01*
X129038095Y-106010238D02*
X129085714Y-106105476D01*
X129085714Y-106105476D02*
X129133333Y-106295952D01*
X129133333Y-106295952D02*
X129133333Y-106438809D01*
X129133333Y-106438809D02*
X129085714Y-106629285D01*
X129085714Y-106629285D02*
X129038095Y-106724523D01*
X129038095Y-106724523D02*
X128942857Y-106819761D01*
X128942857Y-106819761D02*
X128800000Y-106867380D01*
X128800000Y-106867380D02*
X128561905Y-106867380D01*
X129466667Y-105867380D02*
X130085714Y-105867380D01*
X130085714Y-105867380D02*
X129752381Y-106248333D01*
X129752381Y-106248333D02*
X129895238Y-106248333D01*
X129895238Y-106248333D02*
X129990476Y-106295952D01*
X129990476Y-106295952D02*
X130038095Y-106343571D01*
X130038095Y-106343571D02*
X130085714Y-106438809D01*
X130085714Y-106438809D02*
X130085714Y-106676904D01*
X130085714Y-106676904D02*
X130038095Y-106772142D01*
X130038095Y-106772142D02*
X129990476Y-106819761D01*
X129990476Y-106819761D02*
X129895238Y-106867380D01*
X129895238Y-106867380D02*
X129609524Y-106867380D01*
X129609524Y-106867380D02*
X129514286Y-106819761D01*
X129514286Y-106819761D02*
X129466667Y-106772142D01*
%TO.C,J4*%
X139866666Y-65967380D02*
X139866666Y-66681666D01*
X139866666Y-66681666D02*
X139819047Y-66824523D01*
X139819047Y-66824523D02*
X139723809Y-66919761D01*
X139723809Y-66919761D02*
X139580952Y-66967380D01*
X139580952Y-66967380D02*
X139485714Y-66967380D01*
X140771428Y-66300714D02*
X140771428Y-66967380D01*
X140533333Y-65919761D02*
X140295238Y-66634047D01*
X140295238Y-66634047D02*
X140914285Y-66634047D01*
%TO.C,C1*%
X124210833Y-92372142D02*
X124163214Y-92419761D01*
X124163214Y-92419761D02*
X124020357Y-92467380D01*
X124020357Y-92467380D02*
X123925119Y-92467380D01*
X123925119Y-92467380D02*
X123782262Y-92419761D01*
X123782262Y-92419761D02*
X123687024Y-92324523D01*
X123687024Y-92324523D02*
X123639405Y-92229285D01*
X123639405Y-92229285D02*
X123591786Y-92038809D01*
X123591786Y-92038809D02*
X123591786Y-91895952D01*
X123591786Y-91895952D02*
X123639405Y-91705476D01*
X123639405Y-91705476D02*
X123687024Y-91610238D01*
X123687024Y-91610238D02*
X123782262Y-91515000D01*
X123782262Y-91515000D02*
X123925119Y-91467380D01*
X123925119Y-91467380D02*
X124020357Y-91467380D01*
X124020357Y-91467380D02*
X124163214Y-91515000D01*
X124163214Y-91515000D02*
X124210833Y-91562619D01*
X125163214Y-92467380D02*
X124591786Y-92467380D01*
X124877500Y-92467380D02*
X124877500Y-91467380D01*
X124877500Y-91467380D02*
X124782262Y-91610238D01*
X124782262Y-91610238D02*
X124687024Y-91705476D01*
X124687024Y-91705476D02*
X124591786Y-91753095D01*
%TO.C,D1*%
X147531905Y-73997380D02*
X147531905Y-72997380D01*
X147531905Y-72997380D02*
X147770000Y-72997380D01*
X147770000Y-72997380D02*
X147912857Y-73045000D01*
X147912857Y-73045000D02*
X148008095Y-73140238D01*
X148008095Y-73140238D02*
X148055714Y-73235476D01*
X148055714Y-73235476D02*
X148103333Y-73425952D01*
X148103333Y-73425952D02*
X148103333Y-73568809D01*
X148103333Y-73568809D02*
X148055714Y-73759285D01*
X148055714Y-73759285D02*
X148008095Y-73854523D01*
X148008095Y-73854523D02*
X147912857Y-73949761D01*
X147912857Y-73949761D02*
X147770000Y-73997380D01*
X147770000Y-73997380D02*
X147531905Y-73997380D01*
X149055714Y-73997380D02*
X148484286Y-73997380D01*
X148770000Y-73997380D02*
X148770000Y-72997380D01*
X148770000Y-72997380D02*
X148674762Y-73140238D01*
X148674762Y-73140238D02*
X148579524Y-73235476D01*
X148579524Y-73235476D02*
X148484286Y-73283095D01*
%TO.C,J8*%
X124586666Y-70847380D02*
X124586666Y-71561666D01*
X124586666Y-71561666D02*
X124539047Y-71704523D01*
X124539047Y-71704523D02*
X124443809Y-71799761D01*
X124443809Y-71799761D02*
X124300952Y-71847380D01*
X124300952Y-71847380D02*
X124205714Y-71847380D01*
X125205714Y-71275952D02*
X125110476Y-71228333D01*
X125110476Y-71228333D02*
X125062857Y-71180714D01*
X125062857Y-71180714D02*
X125015238Y-71085476D01*
X125015238Y-71085476D02*
X125015238Y-71037857D01*
X125015238Y-71037857D02*
X125062857Y-70942619D01*
X125062857Y-70942619D02*
X125110476Y-70895000D01*
X125110476Y-70895000D02*
X125205714Y-70847380D01*
X125205714Y-70847380D02*
X125396190Y-70847380D01*
X125396190Y-70847380D02*
X125491428Y-70895000D01*
X125491428Y-70895000D02*
X125539047Y-70942619D01*
X125539047Y-70942619D02*
X125586666Y-71037857D01*
X125586666Y-71037857D02*
X125586666Y-71085476D01*
X125586666Y-71085476D02*
X125539047Y-71180714D01*
X125539047Y-71180714D02*
X125491428Y-71228333D01*
X125491428Y-71228333D02*
X125396190Y-71275952D01*
X125396190Y-71275952D02*
X125205714Y-71275952D01*
X125205714Y-71275952D02*
X125110476Y-71323571D01*
X125110476Y-71323571D02*
X125062857Y-71371190D01*
X125062857Y-71371190D02*
X125015238Y-71466428D01*
X125015238Y-71466428D02*
X125015238Y-71656904D01*
X125015238Y-71656904D02*
X125062857Y-71752142D01*
X125062857Y-71752142D02*
X125110476Y-71799761D01*
X125110476Y-71799761D02*
X125205714Y-71847380D01*
X125205714Y-71847380D02*
X125396190Y-71847380D01*
X125396190Y-71847380D02*
X125491428Y-71799761D01*
X125491428Y-71799761D02*
X125539047Y-71752142D01*
X125539047Y-71752142D02*
X125586666Y-71656904D01*
X125586666Y-71656904D02*
X125586666Y-71466428D01*
X125586666Y-71466428D02*
X125539047Y-71371190D01*
X125539047Y-71371190D02*
X125491428Y-71323571D01*
X125491428Y-71323571D02*
X125396190Y-71275952D01*
%TO.C,U4*%
X141138095Y-108967380D02*
X141138095Y-109776904D01*
X141138095Y-109776904D02*
X141185714Y-109872142D01*
X141185714Y-109872142D02*
X141233333Y-109919761D01*
X141233333Y-109919761D02*
X141328571Y-109967380D01*
X141328571Y-109967380D02*
X141519047Y-109967380D01*
X141519047Y-109967380D02*
X141614285Y-109919761D01*
X141614285Y-109919761D02*
X141661904Y-109872142D01*
X141661904Y-109872142D02*
X141709523Y-109776904D01*
X141709523Y-109776904D02*
X141709523Y-108967380D01*
X142614285Y-109300714D02*
X142614285Y-109967380D01*
X142376190Y-108919761D02*
X142138095Y-109634047D01*
X142138095Y-109634047D02*
X142757142Y-109634047D01*
%TO.C,R1*%
X151883333Y-70037380D02*
X151550000Y-69561190D01*
X151311905Y-70037380D02*
X151311905Y-69037380D01*
X151311905Y-69037380D02*
X151692857Y-69037380D01*
X151692857Y-69037380D02*
X151788095Y-69085000D01*
X151788095Y-69085000D02*
X151835714Y-69132619D01*
X151835714Y-69132619D02*
X151883333Y-69227857D01*
X151883333Y-69227857D02*
X151883333Y-69370714D01*
X151883333Y-69370714D02*
X151835714Y-69465952D01*
X151835714Y-69465952D02*
X151788095Y-69513571D01*
X151788095Y-69513571D02*
X151692857Y-69561190D01*
X151692857Y-69561190D02*
X151311905Y-69561190D01*
X152835714Y-70037380D02*
X152264286Y-70037380D01*
X152550000Y-70037380D02*
X152550000Y-69037380D01*
X152550000Y-69037380D02*
X152454762Y-69180238D01*
X152454762Y-69180238D02*
X152359524Y-69275476D01*
X152359524Y-69275476D02*
X152264286Y-69323095D01*
%TO.C,C7*%
X133723333Y-66802142D02*
X133675714Y-66849761D01*
X133675714Y-66849761D02*
X133532857Y-66897380D01*
X133532857Y-66897380D02*
X133437619Y-66897380D01*
X133437619Y-66897380D02*
X133294762Y-66849761D01*
X133294762Y-66849761D02*
X133199524Y-66754523D01*
X133199524Y-66754523D02*
X133151905Y-66659285D01*
X133151905Y-66659285D02*
X133104286Y-66468809D01*
X133104286Y-66468809D02*
X133104286Y-66325952D01*
X133104286Y-66325952D02*
X133151905Y-66135476D01*
X133151905Y-66135476D02*
X133199524Y-66040238D01*
X133199524Y-66040238D02*
X133294762Y-65945000D01*
X133294762Y-65945000D02*
X133437619Y-65897380D01*
X133437619Y-65897380D02*
X133532857Y-65897380D01*
X133532857Y-65897380D02*
X133675714Y-65945000D01*
X133675714Y-65945000D02*
X133723333Y-65992619D01*
X134056667Y-65897380D02*
X134723333Y-65897380D01*
X134723333Y-65897380D02*
X134294762Y-66897380D01*
%TO.C,J9*%
X147566666Y-112667380D02*
X147566666Y-113381666D01*
X147566666Y-113381666D02*
X147519047Y-113524523D01*
X147519047Y-113524523D02*
X147423809Y-113619761D01*
X147423809Y-113619761D02*
X147280952Y-113667380D01*
X147280952Y-113667380D02*
X147185714Y-113667380D01*
X148090476Y-113667380D02*
X148280952Y-113667380D01*
X148280952Y-113667380D02*
X148376190Y-113619761D01*
X148376190Y-113619761D02*
X148423809Y-113572142D01*
X148423809Y-113572142D02*
X148519047Y-113429285D01*
X148519047Y-113429285D02*
X148566666Y-113238809D01*
X148566666Y-113238809D02*
X148566666Y-112857857D01*
X148566666Y-112857857D02*
X148519047Y-112762619D01*
X148519047Y-112762619D02*
X148471428Y-112715000D01*
X148471428Y-112715000D02*
X148376190Y-112667380D01*
X148376190Y-112667380D02*
X148185714Y-112667380D01*
X148185714Y-112667380D02*
X148090476Y-112715000D01*
X148090476Y-112715000D02*
X148042857Y-112762619D01*
X148042857Y-112762619D02*
X147995238Y-112857857D01*
X147995238Y-112857857D02*
X147995238Y-113095952D01*
X147995238Y-113095952D02*
X148042857Y-113191190D01*
X148042857Y-113191190D02*
X148090476Y-113238809D01*
X148090476Y-113238809D02*
X148185714Y-113286428D01*
X148185714Y-113286428D02*
X148376190Y-113286428D01*
X148376190Y-113286428D02*
X148471428Y-113238809D01*
X148471428Y-113238809D02*
X148519047Y-113191190D01*
X148519047Y-113191190D02*
X148566666Y-113095952D01*
%TO.C,R5*%
X117933333Y-76567380D02*
X117600000Y-76091190D01*
X117361905Y-76567380D02*
X117361905Y-75567380D01*
X117361905Y-75567380D02*
X117742857Y-75567380D01*
X117742857Y-75567380D02*
X117838095Y-75615000D01*
X117838095Y-75615000D02*
X117885714Y-75662619D01*
X117885714Y-75662619D02*
X117933333Y-75757857D01*
X117933333Y-75757857D02*
X117933333Y-75900714D01*
X117933333Y-75900714D02*
X117885714Y-75995952D01*
X117885714Y-75995952D02*
X117838095Y-76043571D01*
X117838095Y-76043571D02*
X117742857Y-76091190D01*
X117742857Y-76091190D02*
X117361905Y-76091190D01*
X118838095Y-75567380D02*
X118361905Y-75567380D01*
X118361905Y-75567380D02*
X118314286Y-76043571D01*
X118314286Y-76043571D02*
X118361905Y-75995952D01*
X118361905Y-75995952D02*
X118457143Y-75948333D01*
X118457143Y-75948333D02*
X118695238Y-75948333D01*
X118695238Y-75948333D02*
X118790476Y-75995952D01*
X118790476Y-75995952D02*
X118838095Y-76043571D01*
X118838095Y-76043571D02*
X118885714Y-76138809D01*
X118885714Y-76138809D02*
X118885714Y-76376904D01*
X118885714Y-76376904D02*
X118838095Y-76472142D01*
X118838095Y-76472142D02*
X118790476Y-76519761D01*
X118790476Y-76519761D02*
X118695238Y-76567380D01*
X118695238Y-76567380D02*
X118457143Y-76567380D01*
X118457143Y-76567380D02*
X118361905Y-76519761D01*
X118361905Y-76519761D02*
X118314286Y-76472142D01*
%TO.C,U6*%
X150538095Y-108967380D02*
X150538095Y-109776904D01*
X150538095Y-109776904D02*
X150585714Y-109872142D01*
X150585714Y-109872142D02*
X150633333Y-109919761D01*
X150633333Y-109919761D02*
X150728571Y-109967380D01*
X150728571Y-109967380D02*
X150919047Y-109967380D01*
X150919047Y-109967380D02*
X151014285Y-109919761D01*
X151014285Y-109919761D02*
X151061904Y-109872142D01*
X151061904Y-109872142D02*
X151109523Y-109776904D01*
X151109523Y-109776904D02*
X151109523Y-108967380D01*
X152014285Y-108967380D02*
X151823809Y-108967380D01*
X151823809Y-108967380D02*
X151728571Y-109015000D01*
X151728571Y-109015000D02*
X151680952Y-109062619D01*
X151680952Y-109062619D02*
X151585714Y-109205476D01*
X151585714Y-109205476D02*
X151538095Y-109395952D01*
X151538095Y-109395952D02*
X151538095Y-109776904D01*
X151538095Y-109776904D02*
X151585714Y-109872142D01*
X151585714Y-109872142D02*
X151633333Y-109919761D01*
X151633333Y-109919761D02*
X151728571Y-109967380D01*
X151728571Y-109967380D02*
X151919047Y-109967380D01*
X151919047Y-109967380D02*
X152014285Y-109919761D01*
X152014285Y-109919761D02*
X152061904Y-109872142D01*
X152061904Y-109872142D02*
X152109523Y-109776904D01*
X152109523Y-109776904D02*
X152109523Y-109538809D01*
X152109523Y-109538809D02*
X152061904Y-109443571D01*
X152061904Y-109443571D02*
X152014285Y-109395952D01*
X152014285Y-109395952D02*
X151919047Y-109348333D01*
X151919047Y-109348333D02*
X151728571Y-109348333D01*
X151728571Y-109348333D02*
X151633333Y-109395952D01*
X151633333Y-109395952D02*
X151585714Y-109443571D01*
X151585714Y-109443571D02*
X151538095Y-109538809D01*
%TO.C,C4*%
X128052733Y-92549942D02*
X128005114Y-92597561D01*
X128005114Y-92597561D02*
X127862257Y-92645180D01*
X127862257Y-92645180D02*
X127767019Y-92645180D01*
X127767019Y-92645180D02*
X127624162Y-92597561D01*
X127624162Y-92597561D02*
X127528924Y-92502323D01*
X127528924Y-92502323D02*
X127481305Y-92407085D01*
X127481305Y-92407085D02*
X127433686Y-92216609D01*
X127433686Y-92216609D02*
X127433686Y-92073752D01*
X127433686Y-92073752D02*
X127481305Y-91883276D01*
X127481305Y-91883276D02*
X127528924Y-91788038D01*
X127528924Y-91788038D02*
X127624162Y-91692800D01*
X127624162Y-91692800D02*
X127767019Y-91645180D01*
X127767019Y-91645180D02*
X127862257Y-91645180D01*
X127862257Y-91645180D02*
X128005114Y-91692800D01*
X128005114Y-91692800D02*
X128052733Y-91740419D01*
X128909876Y-91978514D02*
X128909876Y-92645180D01*
X128671781Y-91597561D02*
X128433686Y-92311847D01*
X128433686Y-92311847D02*
X129052733Y-92311847D01*
%TO.C,U2*%
X159137380Y-79901904D02*
X159946904Y-79901904D01*
X159946904Y-79901904D02*
X160042142Y-79854285D01*
X160042142Y-79854285D02*
X160089761Y-79806666D01*
X160089761Y-79806666D02*
X160137380Y-79711428D01*
X160137380Y-79711428D02*
X160137380Y-79520952D01*
X160137380Y-79520952D02*
X160089761Y-79425714D01*
X160089761Y-79425714D02*
X160042142Y-79378095D01*
X160042142Y-79378095D02*
X159946904Y-79330476D01*
X159946904Y-79330476D02*
X159137380Y-79330476D01*
X159232619Y-78901904D02*
X159185000Y-78854285D01*
X159185000Y-78854285D02*
X159137380Y-78759047D01*
X159137380Y-78759047D02*
X159137380Y-78520952D01*
X159137380Y-78520952D02*
X159185000Y-78425714D01*
X159185000Y-78425714D02*
X159232619Y-78378095D01*
X159232619Y-78378095D02*
X159327857Y-78330476D01*
X159327857Y-78330476D02*
X159423095Y-78330476D01*
X159423095Y-78330476D02*
X159565952Y-78378095D01*
X159565952Y-78378095D02*
X160137380Y-78949523D01*
X160137380Y-78949523D02*
X160137380Y-78330476D01*
%TO.C,C12*%
X152519642Y-105172142D02*
X152472023Y-105219761D01*
X152472023Y-105219761D02*
X152329166Y-105267380D01*
X152329166Y-105267380D02*
X152233928Y-105267380D01*
X152233928Y-105267380D02*
X152091071Y-105219761D01*
X152091071Y-105219761D02*
X151995833Y-105124523D01*
X151995833Y-105124523D02*
X151948214Y-105029285D01*
X151948214Y-105029285D02*
X151900595Y-104838809D01*
X151900595Y-104838809D02*
X151900595Y-104695952D01*
X151900595Y-104695952D02*
X151948214Y-104505476D01*
X151948214Y-104505476D02*
X151995833Y-104410238D01*
X151995833Y-104410238D02*
X152091071Y-104315000D01*
X152091071Y-104315000D02*
X152233928Y-104267380D01*
X152233928Y-104267380D02*
X152329166Y-104267380D01*
X152329166Y-104267380D02*
X152472023Y-104315000D01*
X152472023Y-104315000D02*
X152519642Y-104362619D01*
X153472023Y-105267380D02*
X152900595Y-105267380D01*
X153186309Y-105267380D02*
X153186309Y-104267380D01*
X153186309Y-104267380D02*
X153091071Y-104410238D01*
X153091071Y-104410238D02*
X152995833Y-104505476D01*
X152995833Y-104505476D02*
X152900595Y-104553095D01*
X153852976Y-104362619D02*
X153900595Y-104315000D01*
X153900595Y-104315000D02*
X153995833Y-104267380D01*
X153995833Y-104267380D02*
X154233928Y-104267380D01*
X154233928Y-104267380D02*
X154329166Y-104315000D01*
X154329166Y-104315000D02*
X154376785Y-104362619D01*
X154376785Y-104362619D02*
X154424404Y-104457857D01*
X154424404Y-104457857D02*
X154424404Y-104553095D01*
X154424404Y-104553095D02*
X154376785Y-104695952D01*
X154376785Y-104695952D02*
X153805357Y-105267380D01*
X153805357Y-105267380D02*
X154424404Y-105267380D01*
%TO.C,D2*%
X134361905Y-106867380D02*
X134361905Y-105867380D01*
X134361905Y-105867380D02*
X134600000Y-105867380D01*
X134600000Y-105867380D02*
X134742857Y-105915000D01*
X134742857Y-105915000D02*
X134838095Y-106010238D01*
X134838095Y-106010238D02*
X134885714Y-106105476D01*
X134885714Y-106105476D02*
X134933333Y-106295952D01*
X134933333Y-106295952D02*
X134933333Y-106438809D01*
X134933333Y-106438809D02*
X134885714Y-106629285D01*
X134885714Y-106629285D02*
X134838095Y-106724523D01*
X134838095Y-106724523D02*
X134742857Y-106819761D01*
X134742857Y-106819761D02*
X134600000Y-106867380D01*
X134600000Y-106867380D02*
X134361905Y-106867380D01*
X135314286Y-105962619D02*
X135361905Y-105915000D01*
X135361905Y-105915000D02*
X135457143Y-105867380D01*
X135457143Y-105867380D02*
X135695238Y-105867380D01*
X135695238Y-105867380D02*
X135790476Y-105915000D01*
X135790476Y-105915000D02*
X135838095Y-105962619D01*
X135838095Y-105962619D02*
X135885714Y-106057857D01*
X135885714Y-106057857D02*
X135885714Y-106153095D01*
X135885714Y-106153095D02*
X135838095Y-106295952D01*
X135838095Y-106295952D02*
X135266667Y-106867380D01*
X135266667Y-106867380D02*
X135885714Y-106867380D01*
D11*
%TO.C,J2*%
X128505000Y-68930000D02*
X125905000Y-68930000D01*
X125905000Y-66270000D02*
X125905000Y-68930000D01*
X128505000Y-66270000D02*
X128505000Y-68930000D01*
X128505000Y-66270000D02*
X125905000Y-66270000D01*
X129775000Y-66270000D02*
X131105000Y-66270000D01*
X131105000Y-66270000D02*
X131105000Y-67600000D01*
%TO.C,J7*%
X163530000Y-77945000D02*
X163530000Y-83085000D01*
X160870000Y-83085000D02*
X163530000Y-83085000D01*
X160870000Y-77945000D02*
X163530000Y-77945000D01*
X160870000Y-77945000D02*
X160870000Y-83085000D01*
X160870000Y-76675000D02*
X160870000Y-75345000D01*
X160870000Y-75345000D02*
X162200000Y-75345000D01*
%TO.C,R7*%
X120872936Y-78935000D02*
X121327064Y-78935000D01*
X120872936Y-77465000D02*
X121327064Y-77465000D01*
%TO.C,R4*%
X126065000Y-108472936D02*
X126065000Y-108927064D01*
X127535000Y-108472936D02*
X127535000Y-108927064D01*
%TO.C,R3*%
X131865000Y-108572936D02*
X131865000Y-109027064D01*
X133335000Y-108572936D02*
X133335000Y-109027064D01*
%TO.C,C9*%
X134638748Y-79735000D02*
X135161252Y-79735000D01*
X134638748Y-78265000D02*
X135161252Y-78265000D01*
%TO.C,U1*%
G36*
X136907000Y-94615000D02*
G01*
X136653000Y-94869000D01*
X136399000Y-94488000D01*
X136653000Y-94234000D01*
X136907000Y-94615000D01*
G37*
D12*
X136907000Y-94615000D02*
X136653000Y-94869000D01*
X136399000Y-94488000D01*
X136653000Y-94234000D01*
X136907000Y-94615000D01*
G36*
X136526000Y-94107000D02*
G01*
X136272000Y-94361000D01*
X136018000Y-93980000D01*
X136272000Y-93726000D01*
X136526000Y-94107000D01*
G37*
X136526000Y-94107000D02*
X136272000Y-94361000D01*
X136018000Y-93980000D01*
X136272000Y-93726000D01*
X136526000Y-94107000D01*
G36*
X136145000Y-94488000D02*
G01*
X135891000Y-94742000D01*
X135637000Y-94361000D01*
X135891000Y-94107000D01*
X136145000Y-94488000D01*
G37*
X136145000Y-94488000D02*
X135891000Y-94742000D01*
X135637000Y-94361000D01*
X135891000Y-94107000D01*
X136145000Y-94488000D01*
G36*
X136145000Y-93599000D02*
G01*
X135891000Y-93853000D01*
X135637000Y-93472000D01*
X135891000Y-93218000D01*
X136145000Y-93599000D01*
G37*
X136145000Y-93599000D02*
X135891000Y-93853000D01*
X135637000Y-93472000D01*
X135891000Y-93218000D01*
X136145000Y-93599000D01*
G36*
X135764000Y-93980000D02*
G01*
X135510000Y-94234000D01*
X135256000Y-93853000D01*
X135510000Y-93599000D01*
X135764000Y-93980000D01*
G37*
X135764000Y-93980000D02*
X135510000Y-94234000D01*
X135256000Y-93853000D01*
X135510000Y-93599000D01*
X135764000Y-93980000D01*
G36*
X135383000Y-93472000D02*
G01*
X135129000Y-93726000D01*
X134875000Y-93345000D01*
X135129000Y-93091000D01*
X135383000Y-93472000D01*
G37*
X135383000Y-93472000D02*
X135129000Y-93726000D01*
X134875000Y-93345000D01*
X135129000Y-93091000D01*
X135383000Y-93472000D01*
G36*
X135002000Y-93853000D02*
G01*
X134748000Y-94107000D01*
X134494000Y-93726000D01*
X134748000Y-93472000D01*
X135002000Y-93853000D01*
G37*
X135002000Y-93853000D02*
X134748000Y-94107000D01*
X134494000Y-93726000D01*
X134748000Y-93472000D01*
X135002000Y-93853000D01*
G36*
X134621000Y-94234000D02*
G01*
X134367000Y-94488000D01*
X134113000Y-94107000D01*
X134367000Y-93853000D01*
X134621000Y-94234000D01*
G37*
X134621000Y-94234000D02*
X134367000Y-94488000D01*
X134113000Y-94107000D01*
X134367000Y-93853000D01*
X134621000Y-94234000D01*
D10*
X155830000Y-102870000D02*
X120270000Y-102870000D01*
X155830000Y-85090000D02*
X155830000Y-102870000D01*
X152782000Y-95250000D02*
X148210000Y-95250000D01*
X152782000Y-92710000D02*
X152782000Y-95250000D01*
X148210000Y-95250000D02*
X148210000Y-92710000D01*
X148210000Y-92710000D02*
X152782000Y-92710000D01*
X145670000Y-92075000D02*
X143130000Y-92075000D01*
X145670000Y-88900000D02*
X145670000Y-92075000D01*
X143130000Y-92075000D02*
X143130000Y-88900000D01*
X143130000Y-88900000D02*
X145670000Y-88900000D01*
X142495000Y-99060000D02*
X142495000Y-88900000D01*
X142495000Y-99060000D02*
X132335000Y-99060000D01*
X142495000Y-88900000D02*
X132335000Y-88900000D01*
X132335000Y-88900000D02*
X132335000Y-99060000D01*
X125350000Y-97790000D02*
X125350000Y-90170000D01*
X125350000Y-97790000D02*
X120270000Y-97790000D01*
X125350000Y-90170000D02*
X120270000Y-90170000D01*
X120270000Y-102870000D02*
X120270000Y-85090000D01*
X120270000Y-97790000D02*
X119000000Y-97790000D01*
X120270000Y-85090000D02*
X155830000Y-85090000D01*
X119000000Y-97790000D02*
X119000000Y-90170000D01*
X119000000Y-90170000D02*
X120270000Y-90170000D01*
D11*
%TO.C,R2*%
X147765000Y-67672936D02*
X147765000Y-68127064D01*
X149235000Y-67672936D02*
X149235000Y-68127064D01*
%TO.C,J6*%
X140087000Y-114630000D02*
X137487000Y-114630000D01*
X137487000Y-111970000D02*
X137487000Y-114630000D01*
X140087000Y-111970000D02*
X140087000Y-114630000D01*
X140087000Y-111970000D02*
X137487000Y-111970000D01*
X141357000Y-111970000D02*
X142687000Y-111970000D01*
X142687000Y-111970000D02*
X142687000Y-113300000D01*
%TO.C,J5*%
X160870000Y-98980000D02*
X160870000Y-86220000D01*
X163530000Y-86220000D02*
X160870000Y-86220000D01*
X163530000Y-98980000D02*
X160870000Y-98980000D01*
X163530000Y-98980000D02*
X163530000Y-86220000D01*
X163530000Y-100250000D02*
X163530000Y-101580000D01*
X163530000Y-101580000D02*
X162200000Y-101580000D01*
%TO.C,C10*%
X134638748Y-77335000D02*
X135161252Y-77335000D01*
X134638748Y-75865000D02*
X135161252Y-75865000D01*
%TO.C,C2*%
X158235000Y-95461252D02*
X158235000Y-94938748D01*
X156765000Y-95461252D02*
X156765000Y-94938748D01*
%TO.C,R8*%
X121327064Y-79565000D02*
X120872936Y-79565000D01*
X121327064Y-81035000D02*
X120872936Y-81035000D01*
%TO.C,C6*%
X138601248Y-107435000D02*
X139123752Y-107435000D01*
X138601248Y-105965000D02*
X139123752Y-105965000D01*
%TO.C,U3*%
X144910000Y-82610000D02*
X144910000Y-81350000D01*
X144910000Y-75790000D02*
X144910000Y-77050000D01*
X141150000Y-82610000D02*
X144910000Y-82610000D01*
X138900000Y-75790000D02*
X144910000Y-75790000D01*
%TO.C,C11*%
X148138748Y-107435000D02*
X148661252Y-107435000D01*
X148138748Y-105965000D02*
X148661252Y-105965000D01*
%TO.C,J3*%
X130930000Y-114630000D02*
X128330000Y-114630000D01*
X128330000Y-111970000D02*
X128330000Y-114630000D01*
X130930000Y-111970000D02*
X130930000Y-114630000D01*
X130930000Y-111970000D02*
X128330000Y-111970000D01*
X132200000Y-111970000D02*
X133530000Y-111970000D01*
X133530000Y-111970000D02*
X133530000Y-113300000D01*
%TO.C,R6*%
X121327064Y-81665000D02*
X120872936Y-81665000D01*
X121327064Y-83135000D02*
X120872936Y-83135000D01*
%TO.C,J1*%
X152782000Y-68930000D02*
X150182000Y-68930000D01*
X150182000Y-66270000D02*
X150182000Y-68930000D01*
X152782000Y-66270000D02*
X152782000Y-68930000D01*
X152782000Y-66270000D02*
X150182000Y-66270000D01*
X154052000Y-66270000D02*
X155382000Y-66270000D01*
X155382000Y-66270000D02*
X155382000Y-67600000D01*
%TO.C,C3*%
X153865000Y-71538748D02*
X153865000Y-72061252D01*
X155335000Y-71538748D02*
X155335000Y-72061252D01*
%TO.C,C8*%
X144023752Y-105965000D02*
X143501248Y-105965000D01*
X144023752Y-107435000D02*
X143501248Y-107435000D01*
%TO.C,C5*%
X143661252Y-71065000D02*
X143138748Y-71065000D01*
X143661252Y-72535000D02*
X143138748Y-72535000D01*
%TO.C,U5*%
X128600000Y-82060000D02*
X130550000Y-82060000D01*
X128600000Y-82060000D02*
X126650000Y-82060000D01*
X128600000Y-76940000D02*
X130550000Y-76940000D01*
X128600000Y-76940000D02*
X125150000Y-76940000D01*
%TO.C,D3*%
X130260000Y-109800000D02*
X130260000Y-107115000D01*
X128340000Y-107115000D02*
X128340000Y-109800000D01*
X130260000Y-107115000D02*
X128340000Y-107115000D01*
%TO.C,J4*%
X144205000Y-68930000D02*
X141605000Y-68930000D01*
X141605000Y-66270000D02*
X141605000Y-68930000D01*
X144205000Y-66270000D02*
X144205000Y-68930000D01*
X144205000Y-66270000D02*
X141605000Y-66270000D01*
X145475000Y-66270000D02*
X146805000Y-66270000D01*
X146805000Y-66270000D02*
X146805000Y-67600000D01*
%TO.C,C1*%
X121061252Y-91365000D02*
X120538748Y-91365000D01*
X121061252Y-92835000D02*
X120538748Y-92835000D01*
%TO.C,D1*%
X146050000Y-72800000D02*
X149950000Y-72800000D01*
X146050000Y-70800000D02*
X149950000Y-70800000D01*
X146050000Y-70800000D02*
X146050000Y-72800000D01*
%TO.C,J8*%
X128505000Y-72730000D02*
X125905000Y-72730000D01*
X125905000Y-70070000D02*
X125905000Y-72730000D01*
X128505000Y-70070000D02*
X128505000Y-72730000D01*
X128505000Y-70070000D02*
X125905000Y-70070000D01*
X129775000Y-70070000D02*
X131105000Y-70070000D01*
X131105000Y-70070000D02*
X131105000Y-71400000D01*
%TO.C,U4*%
X139550000Y-110500000D02*
X138250000Y-110500000D01*
X138000000Y-108700000D02*
X139550000Y-108700000D01*
%TO.C,R1*%
X151365000Y-71572936D02*
X151365000Y-72027064D01*
X152835000Y-71572936D02*
X152835000Y-72027064D01*
%TO.C,C7*%
X140620000Y-70597300D02*
G75*
G03*
X140620000Y-70597300I-4120000J0D01*
G01*
X137033000Y-74678300D02*
X135967000Y-74678300D01*
X137268000Y-74638300D02*
X135732000Y-74638300D01*
X137448000Y-74598300D02*
X135552000Y-74598300D01*
X137598000Y-74558300D02*
X135402000Y-74558300D01*
X137729000Y-74518300D02*
X135271000Y-74518300D01*
X137846000Y-74478300D02*
X135154000Y-74478300D01*
X137953000Y-74438300D02*
X135047000Y-74438300D01*
X138052000Y-74398300D02*
X134948000Y-74398300D01*
X138145000Y-74358300D02*
X134855000Y-74358300D01*
X138231000Y-74318300D02*
X134769000Y-74318300D01*
X138313000Y-74278300D02*
X134687000Y-74278300D01*
X138390000Y-74238300D02*
X134610000Y-74238300D01*
X138464000Y-74198300D02*
X134536000Y-74198300D01*
X138534000Y-74158300D02*
X134466000Y-74158300D01*
X138602000Y-74118300D02*
X134398000Y-74118300D01*
X138666000Y-74078300D02*
X134334000Y-74078300D01*
X138728000Y-74038300D02*
X134272000Y-74038300D01*
X138787000Y-73998300D02*
X134213000Y-73998300D01*
X138845000Y-73958300D02*
X134155000Y-73958300D01*
X138900000Y-73918300D02*
X134100000Y-73918300D01*
X138954000Y-73878300D02*
X134046000Y-73878300D01*
X139005000Y-73838300D02*
X133995000Y-73838300D01*
X139056000Y-73798300D02*
X133944000Y-73798300D01*
X139104000Y-73758300D02*
X133896000Y-73758300D01*
X139151000Y-73718300D02*
X133849000Y-73718300D01*
X139197000Y-73678300D02*
X133803000Y-73678300D01*
X139241000Y-73638300D02*
X133759000Y-73638300D01*
X139284000Y-73598300D02*
X133716000Y-73598300D01*
X139326000Y-73558300D02*
X133674000Y-73558300D01*
X139367000Y-73518300D02*
X133633000Y-73518300D01*
X139407000Y-73478300D02*
X133593000Y-73478300D01*
X139445000Y-73438300D02*
X133555000Y-73438300D01*
X139483000Y-73398300D02*
X133517000Y-73398300D01*
X135460000Y-73358300D02*
X133481000Y-73358300D01*
X139519000Y-73358300D02*
X137540000Y-73358300D01*
X135460000Y-73318300D02*
X133445000Y-73318300D01*
X139555000Y-73318300D02*
X137540000Y-73318300D01*
X135460000Y-73278300D02*
X133410000Y-73278300D01*
X139590000Y-73278300D02*
X137540000Y-73278300D01*
X135460000Y-73238300D02*
X133376000Y-73238300D01*
X139624000Y-73238300D02*
X137540000Y-73238300D01*
X135460000Y-73198300D02*
X133344000Y-73198300D01*
X139656000Y-73198300D02*
X137540000Y-73198300D01*
X135460000Y-73158300D02*
X133311000Y-73158300D01*
X139689000Y-73158300D02*
X137540000Y-73158300D01*
X135460000Y-73118300D02*
X133280000Y-73118300D01*
X139720000Y-73118300D02*
X137540000Y-73118300D01*
X135460000Y-73078300D02*
X133250000Y-73078300D01*
X139750000Y-73078300D02*
X137540000Y-73078300D01*
X135460000Y-73038300D02*
X133220000Y-73038300D01*
X139780000Y-73038300D02*
X137540000Y-73038300D01*
X135460000Y-72998300D02*
X133191000Y-72998300D01*
X139809000Y-72998300D02*
X137540000Y-72998300D01*
X135460000Y-72958300D02*
X133162000Y-72958300D01*
X139838000Y-72958300D02*
X137540000Y-72958300D01*
X135460000Y-72918300D02*
X133135000Y-72918300D01*
X139865000Y-72918300D02*
X137540000Y-72918300D01*
X135460000Y-72878300D02*
X133108000Y-72878300D01*
X139892000Y-72878300D02*
X137540000Y-72878300D01*
X135460000Y-72838300D02*
X133082000Y-72838300D01*
X139918000Y-72838300D02*
X137540000Y-72838300D01*
X135460000Y-72798300D02*
X133056000Y-72798300D01*
X139944000Y-72798300D02*
X137540000Y-72798300D01*
X135460000Y-72758300D02*
X133031000Y-72758300D01*
X139969000Y-72758300D02*
X137540000Y-72758300D01*
X135460000Y-72718300D02*
X133007000Y-72718300D01*
X139993000Y-72718300D02*
X137540000Y-72718300D01*
X135460000Y-72678300D02*
X132983000Y-72678300D01*
X140017000Y-72678300D02*
X137540000Y-72678300D01*
X135460000Y-72638300D02*
X132960000Y-72638300D01*
X140040000Y-72638300D02*
X137540000Y-72638300D01*
X135460000Y-72598300D02*
X132938000Y-72598300D01*
X140062000Y-72598300D02*
X137540000Y-72598300D01*
X135460000Y-72558300D02*
X132916000Y-72558300D01*
X140084000Y-72558300D02*
X137540000Y-72558300D01*
X135460000Y-72518300D02*
X132894000Y-72518300D01*
X140106000Y-72518300D02*
X137540000Y-72518300D01*
X135460000Y-72478300D02*
X132873000Y-72478300D01*
X140127000Y-72478300D02*
X137540000Y-72478300D01*
X135460000Y-72438300D02*
X132853000Y-72438300D01*
X140147000Y-72438300D02*
X137540000Y-72438300D01*
X135460000Y-72398300D02*
X132834000Y-72398300D01*
X140166000Y-72398300D02*
X137540000Y-72398300D01*
X135460000Y-72358300D02*
X132814000Y-72358300D01*
X140186000Y-72358300D02*
X137540000Y-72358300D01*
X135460000Y-72318300D02*
X132796000Y-72318300D01*
X140204000Y-72318300D02*
X137540000Y-72318300D01*
X135460000Y-72278300D02*
X132778000Y-72278300D01*
X140222000Y-72278300D02*
X137540000Y-72278300D01*
X135460000Y-72238300D02*
X132760000Y-72238300D01*
X140240000Y-72238300D02*
X137540000Y-72238300D01*
X135460000Y-72198300D02*
X132743000Y-72198300D01*
X140257000Y-72198300D02*
X137540000Y-72198300D01*
X135460000Y-72158300D02*
X132726000Y-72158300D01*
X140274000Y-72158300D02*
X137540000Y-72158300D01*
X135460000Y-72118300D02*
X132710000Y-72118300D01*
X140290000Y-72118300D02*
X137540000Y-72118300D01*
X135460000Y-72078300D02*
X132695000Y-72078300D01*
X140305000Y-72078300D02*
X137540000Y-72078300D01*
X135460000Y-72038300D02*
X132679000Y-72038300D01*
X140321000Y-72038300D02*
X137540000Y-72038300D01*
X135460000Y-71998300D02*
X132665000Y-71998300D01*
X140335000Y-71998300D02*
X137540000Y-71998300D01*
X135460000Y-71958300D02*
X132650000Y-71958300D01*
X140350000Y-71958300D02*
X137540000Y-71958300D01*
X135460000Y-71918300D02*
X132637000Y-71918300D01*
X140363000Y-71918300D02*
X137540000Y-71918300D01*
X135460000Y-71878300D02*
X132623000Y-71878300D01*
X140377000Y-71878300D02*
X137540000Y-71878300D01*
X135460000Y-71838300D02*
X132611000Y-71838300D01*
X140389000Y-71838300D02*
X137540000Y-71838300D01*
X135460000Y-71798300D02*
X132598000Y-71798300D01*
X140402000Y-71798300D02*
X137540000Y-71798300D01*
X135460000Y-71758300D02*
X132586000Y-71758300D01*
X140414000Y-71758300D02*
X137540000Y-71758300D01*
X135460000Y-71718300D02*
X132575000Y-71718300D01*
X140425000Y-71718300D02*
X137540000Y-71718300D01*
X135460000Y-71678300D02*
X132564000Y-71678300D01*
X140436000Y-71678300D02*
X137540000Y-71678300D01*
X135460000Y-71638300D02*
X132553000Y-71638300D01*
X140447000Y-71638300D02*
X137540000Y-71638300D01*
X135460000Y-71598300D02*
X132543000Y-71598300D01*
X140457000Y-71598300D02*
X137540000Y-71598300D01*
X135460000Y-71558300D02*
X132533000Y-71558300D01*
X140467000Y-71558300D02*
X137540000Y-71558300D01*
X135460000Y-71518300D02*
X132524000Y-71518300D01*
X140476000Y-71518300D02*
X137540000Y-71518300D01*
X135460000Y-71478300D02*
X132515000Y-71478300D01*
X140485000Y-71478300D02*
X137540000Y-71478300D01*
X135460000Y-71438300D02*
X132506000Y-71438300D01*
X140494000Y-71438300D02*
X137540000Y-71438300D01*
X135460000Y-71398300D02*
X132498000Y-71398300D01*
X140502000Y-71398300D02*
X137540000Y-71398300D01*
X135460000Y-71358300D02*
X132490000Y-71358300D01*
X140510000Y-71358300D02*
X137540000Y-71358300D01*
X135460000Y-71318300D02*
X132483000Y-71318300D01*
X140517000Y-71318300D02*
X137540000Y-71318300D01*
X140524000Y-71277300D02*
X132476000Y-71277300D01*
X140530000Y-71237300D02*
X132470000Y-71237300D01*
X140537000Y-71197300D02*
X132463000Y-71197300D01*
X140542000Y-71157300D02*
X132458000Y-71157300D01*
X140548000Y-71117300D02*
X132452000Y-71117300D01*
X140552000Y-71077300D02*
X132448000Y-71077300D01*
X140557000Y-71037300D02*
X132443000Y-71037300D01*
X140561000Y-70997300D02*
X132439000Y-70997300D01*
X140565000Y-70957300D02*
X132435000Y-70957300D01*
X140568000Y-70917300D02*
X132432000Y-70917300D01*
X140571000Y-70877300D02*
X132429000Y-70877300D01*
X140574000Y-70837300D02*
X132426000Y-70837300D01*
X140576000Y-70797300D02*
X132424000Y-70797300D01*
X140577000Y-70757300D02*
X132423000Y-70757300D01*
X140579000Y-70717300D02*
X132421000Y-70717300D01*
X140580000Y-70677300D02*
X132420000Y-70677300D01*
X140580000Y-70637300D02*
X132420000Y-70637300D01*
X140580000Y-70597300D02*
X132420000Y-70597300D01*
X139215000Y-66587602D02*
X138415000Y-66587602D01*
X138815000Y-66187602D02*
X138815000Y-66987602D01*
%TO.C,J9*%
X154355000Y-114630000D02*
X149215000Y-114630000D01*
X149215000Y-111970000D02*
X149215000Y-114630000D01*
X154355000Y-111970000D02*
X154355000Y-114630000D01*
X154355000Y-111970000D02*
X149215000Y-111970000D01*
X155625000Y-111970000D02*
X156955000Y-111970000D01*
X156955000Y-111970000D02*
X156955000Y-113300000D01*
%TO.C,R5*%
X120872936Y-76835000D02*
X121327064Y-76835000D01*
X120872936Y-75365000D02*
X121327064Y-75365000D01*
%TO.C,U6*%
X149050000Y-110500000D02*
X147750000Y-110500000D01*
X147500000Y-108700000D02*
X149050000Y-108700000D01*
%TO.C,C4*%
X125661252Y-91365000D02*
X125138748Y-91365000D01*
X125661252Y-92835000D02*
X125138748Y-92835000D01*
%TO.C,U2*%
X148470000Y-80215000D02*
G75*
G03*
X148470000Y-78215000I0J1000000D01*
G01*
X158750000Y-76965000D02*
X148470000Y-76965000D01*
X148470000Y-76965000D02*
X148470000Y-78215000D01*
X148470000Y-80215000D02*
X148470000Y-81465000D01*
X158750000Y-81465000D02*
X158750000Y-76965000D01*
X148470000Y-81465000D02*
X158750000Y-81465000D01*
%TO.C,C12*%
X153461252Y-105965000D02*
X152938748Y-105965000D01*
X153461252Y-107435000D02*
X152938748Y-107435000D01*
%TO.C,D2*%
X136060000Y-109800000D02*
X136060000Y-107115000D01*
X134140000Y-107115000D02*
X134140000Y-109800000D01*
X136060000Y-107115000D02*
X134140000Y-107115000D01*
%TD*%
M02*
