M48
; DRILL file {KiCad 6.99.0-unknown-e4798199c6~148~ubuntu20.04.1} date Sun 12 Jun 2022 06:06:07 PM CEST
; FORMAT={-:-/ absolute / metric / decimal}
; #@! TF.CreationDate,2022-06-12T18:06:07+02:00
; #@! TF.GenerationSoftware,Kicad,Pcbnew,6.99.0-unknown-e4798199c6~148~ubuntu20.04.1
; #@! TF.FileFunction,Plated,1,2,PTH
FMAT,2
METRIC
; #@! TA.AperFunction,Plated,PTH,ViaDrill
T1C0.400
; #@! TA.AperFunction,Plated,PTH,ComponentDrill
T2C0.500
; #@! TA.AperFunction,Plated,PTH,ComponentDrill
T3C0.800
; #@! TA.AperFunction,Plated,PTH,ComponentDrill
T4C1.000
; #@! TA.AperFunction,Plated,PTH,ComponentDrill
T5C1.100
; #@! TA.AperFunction,Plated,PTH,ComponentDrill
T6C3.000
%
G90
G05
T1
X118.0Y-99.0
X118.0Y-100.0
X118.11Y-77.13
X118.13Y-81.29
X118.13Y-83.45
X118.14Y-74.95
X118.15Y-79.28
X119.0Y-104.0
X120.0Y-104.0
X120.0Y-106.0
X121.0Y-95.0
X121.0Y-97.0
X121.0Y-106.0
X123.42Y-67.69
X123.8Y-81.72
X123.82Y-76.08
X125.0Y-98.0
X125.0Y-114.0
X125.91Y-76.44
X126.0Y-114.0
X126.05Y-82.88
X126.9Y-104.15
X129.67Y-88.94
X130.0Y-84.0
X130.0Y-98.0
X131.74Y-74.18
X131.86Y-75.38
X131.92Y-88.94
X133.0Y-83.0
X134.17Y-88.94
X134.21Y-69.86
X136.0Y-105.0
X136.42Y-88.94
X136.53Y-67.14
X137.0Y-84.0
X137.153Y-110.89
X137.78Y-78.9
X138.0Y-98.0
X138.67Y-88.94
X140.0Y-98.0
X141.57Y-91.51
X143.55Y-77.39
X143.61Y-81.01
X144.59Y-103.92
X145.0Y-93.0
X145.0Y-99.0
X145.0Y-109.0
X145.4Y-74.62
X146.0Y-112.0
X146.96Y-75.94
X147.08Y-68.62
X147.6Y-83.32
X148.12Y-103.92
X148.3Y-71.79
X149.69Y-77.65
X151.66Y-80.15
X152.0Y-91.0
X152.0Y-99.0
X152.63Y-68.57
X154.82Y-79.27
X156.01Y-92.38
X157.0Y-110.0
X157.26Y-68.93
X158.0Y-89.0
X158.0Y-100.0
X158.0Y-102.0
X158.03Y-86.32
X158.05Y-78.67
X160.58Y-66.58
X161.0Y-106.0
X163.0Y-104.0
T2
X118.75Y-71.0
X118.75Y-111.0
X119.409Y-69.409
X119.409Y-72.591
X119.409Y-109.409
X119.409Y-112.591
X121.0Y-68.75
X121.0Y-73.25
X121.0Y-108.75
X121.0Y-113.25
X122.591Y-69.409
X122.591Y-72.591
X122.591Y-109.409
X122.591Y-112.591
X123.25Y-71.0
X123.25Y-111.0
X158.75Y-71.0
X158.75Y-111.0
X159.409Y-69.409
X159.409Y-72.591
X159.409Y-109.409
X159.409Y-112.591
X161.0Y-68.75
X161.0Y-73.25
X161.0Y-108.75
X161.0Y-113.25
X162.591Y-69.409
X162.591Y-72.591
X162.591Y-109.409
X162.591Y-112.591
X163.25Y-71.0
X163.25Y-111.0
T3
X136.5Y-68.847
X136.5Y-72.347
X149.8Y-75.405
X149.8Y-83.025
X152.34Y-75.405
X152.34Y-83.025
X154.88Y-75.405
X154.88Y-83.025
X157.42Y-75.405
X157.42Y-83.025
T4
X127.235Y-67.6
X127.235Y-71.4
X129.66Y-113.3
X129.775Y-67.6
X129.775Y-71.4
X132.2Y-113.3
X138.817Y-113.3
X141.357Y-113.3
X142.935Y-67.6
X145.475Y-67.6
X150.545Y-113.3
X151.512Y-67.6
X153.085Y-113.3
X154.052Y-67.6
X155.625Y-113.3
X162.2Y-76.675
X162.2Y-79.215
X162.2Y-81.755
X162.2Y-87.55
X162.2Y-90.09
X162.2Y-92.63
X162.2Y-95.17
X162.2Y-97.71
X162.2Y-100.25
T5
X121.54Y-86.36
X121.54Y-101.6
X124.08Y-86.36
X124.08Y-88.9
X124.08Y-101.6
X126.62Y-86.36
X126.62Y-101.6
X129.16Y-86.36
X129.16Y-101.6
X131.7Y-86.36
X131.7Y-101.6
X134.24Y-86.36
X134.24Y-101.6
X136.78Y-86.36
X136.78Y-101.6
X139.32Y-86.36
X139.32Y-101.6
X141.86Y-86.36
X141.86Y-101.6
X144.4Y-86.36
X144.4Y-101.6
X146.94Y-86.36
X146.94Y-88.9
X146.94Y-91.44
X146.94Y-93.98
X146.94Y-96.52
X146.94Y-99.06
X146.94Y-101.6
X149.48Y-86.36
X149.48Y-88.9
X149.48Y-91.44
X149.48Y-93.98
X149.48Y-96.52
X149.48Y-99.06
X149.48Y-101.6
X152.02Y-86.36
X152.02Y-101.6
X154.56Y-86.36
X154.56Y-88.9
X154.56Y-91.44
X154.56Y-93.98
X154.56Y-96.52
X154.56Y-99.06
X154.56Y-101.6
T6
X121.0Y-71.0
X121.0Y-111.0
X161.0Y-71.0
X161.0Y-111.0
T0
M30
